<?xml version="1.0" encoding="UTF-8" standalone="no"?>
<!DOCTYPE svg PUBLIC "-//W3C//DTD SVG 1.1//EN"
 "http://www.w3.org/Graphics/SVG/1.1/DTD/svg11.dtd">
<!-- Generated by graphviz version 2.40.1 (20161225.0304)
 -->
<!-- Title: dependencies Pages: 1 -->
<svg width="966pt" height="284pt"
 viewBox="0.00 0.00 966.00 284.00" xmlns="http://www.w3.org/2000/svg" xmlns:xlink="http://www.w3.org/1999/xlink">
<g id="graph0" class="graph" transform="scale(1 1) rotate(0) translate(4 280)">
<title>dependencies</title>
<polygon fill="#ffffff" stroke="transparent" points="-4,4 -4,-280 962,-280 962,4 -4,4"/>
<text text-anchor="start" x="458.0091" y="-42.4" font-family="sans-serif" font-weight="bold" font-size="14.00" fill="#000000">Legend</text>
<polygon fill="#ffffb3" stroke="transparent" points="245,-10 245,-30 265,-30 265,-10 245,-10"/>
<text text-anchor="start" x="268.629" y="-15.4" font-family="sans-serif" font-size="14.00" fill="#000000"> &#160;Declarations</text>
<polygon fill="#8dd3c7" stroke="transparent" points="358,-10 358,-30 378,-30 378,-10 358,-10"/>
<text text-anchor="start" x="381.7251" y="-15.4" font-family="sans-serif" font-size="14.00" fill="#000000"> &#160;Module</text>
<polygon fill="#80b1d3" stroke="transparent" points="444,-10 444,-30 464,-30 464,-10 444,-10"/>
<text text-anchor="start" x="467.7812" y="-15.4" font-family="sans-serif" font-size="14.00" fill="#000000"> &#160;Bootstrap</text>
<polygon fill="#fdb462" stroke="transparent" points="541,-10 541,-30 561,-30 561,-10 541,-10"/>
<text text-anchor="start" x="564.6732" y="-15.4" font-family="sans-serif" font-size="14.00" fill="#000000"> &#160;Providers</text>
<polygon fill="#fb8072" stroke="transparent" points="637,-10 637,-30 657,-30 657,-10 637,-10"/>
<text text-anchor="start" x="660.7258" y="-15.4" font-family="sans-serif" font-size="14.00" fill="#000000"> &#160;Exports</text>
<g id="clust1" class="cluster">
<title>cluster_BossesModule</title>
<polygon fill="none" stroke="#000000" stroke-dasharray="1,5" points="8,-70 8,-268 950,-268 950,-70 8,-70"/>
</g>
<g id="clust2" class="cluster">
<title>cluster_BossesModule_declarations</title>
<polygon fill="none" stroke="#000000" points="278,-78 278,-130 942,-130 942,-78 278,-78"/>
</g>
<g id="clust7" class="cluster">
<title>cluster_BossesModule_imports</title>
<polygon fill="none" stroke="#000000" points="16,-78 16,-130 270,-130 270,-78 16,-78"/>
</g>
<g id="clust8" class="cluster">
<title>cluster_BossesModule_exports</title>
<polygon fill="none" stroke="#000000" points="367,-208 367,-260 507,-260 507,-208 367,-208"/>
</g>
<!-- BossesComponent -->
<g id="node1" class="node">
<title>BossesComponent</title>
<polygon fill="#ffffb3" stroke="#000000" points="934.2176,-122 813.7824,-122 813.7824,-86 934.2176,-86 934.2176,-122"/>
<text text-anchor="middle" x="874" y="-99.8" font-family="Times,serif" font-size="14.00" fill="#000000">BossesComponent</text>
</g>
<!-- BossesModule -->
<g id="node5" class="node">
<title>BossesModule</title>
<polygon fill="#8dd3c7" stroke="#000000" points="486.4358,-187 483.4358,-191 462.4358,-191 459.4358,-187 387.5642,-187 387.5642,-151 486.4358,-151 486.4358,-187"/>
<text text-anchor="middle" x="437" y="-164.8" font-family="Times,serif" font-size="14.00" fill="#000000">BossesModule</text>
</g>
<!-- BossesComponent&#45;&gt;BossesModule -->
<g id="edge1" class="edge">
<title>BossesComponent&#45;&gt;BossesModule</title>
<path fill="none" stroke="#000000" d="M874,-122.2843C874,-143.3211 874,-175 874,-175 874,-175 496.28,-175 496.28,-175"/>
<polygon fill="#000000" stroke="#000000" points="496.28,-171.5001 486.28,-175 496.2799,-178.5001 496.28,-171.5001"/>
</g>
<!-- CompositionDetailComponent -->
<g id="node2" class="node">
<title>CompositionDetailComponent</title>
<polygon fill="#ffffb3" stroke="#000000" points="795.8836,-122 608.1164,-122 608.1164,-86 795.8836,-86 795.8836,-122"/>
<text text-anchor="middle" x="702" y="-99.8" font-family="Times,serif" font-size="14.00" fill="#000000">CompositionDetailComponent</text>
</g>
<!-- CompositionDetailComponent&#45;&gt;BossesModule -->
<g id="edge2" class="edge">
<title>CompositionDetailComponent&#45;&gt;BossesModule</title>
<path fill="none" stroke="#000000" d="M702,-122.0225C702,-139.3734 702,-163 702,-163 702,-163 496.2234,-163 496.2234,-163"/>
<polygon fill="#000000" stroke="#000000" points="496.2235,-159.5001 486.2234,-163 496.2234,-166.5001 496.2235,-159.5001"/>
</g>
<!-- LogsDetailComponent -->
<g id="node3" class="node">
<title>LogsDetailComponent</title>
<polygon fill="#ffffb3" stroke="#000000" points="589.5379,-122 446.4621,-122 446.4621,-86 589.5379,-86 589.5379,-122"/>
<text text-anchor="middle" x="518" y="-99.8" font-family="Times,serif" font-size="14.00" fill="#000000">LogsDetailComponent</text>
</g>
<!-- LogsDetailComponent&#45;&gt;BossesModule -->
<g id="edge3" class="edge">
<title>LogsDetailComponent&#45;&gt;BossesModule</title>
<path fill="none" stroke="#000000" d="M466.2244,-122.1061C466.2244,-122.1061 466.2244,-140.991 466.2244,-140.991"/>
<polygon fill="#000000" stroke="#000000" points="462.7245,-140.9909 466.2244,-150.991 469.7245,-140.991 462.7245,-140.9909"/>
</g>
<!-- SpecDetailComponent -->
<g id="node4" class="node">
<title>SpecDetailComponent</title>
<polygon fill="#ffffb3" stroke="#000000" points="428.252,-122 285.748,-122 285.748,-86 428.252,-86 428.252,-122"/>
<text text-anchor="middle" x="357" y="-99.8" font-family="Times,serif" font-size="14.00" fill="#000000">SpecDetailComponent</text>
</g>
<!-- SpecDetailComponent&#45;&gt;BossesModule -->
<g id="edge4" class="edge">
<title>SpecDetailComponent&#45;&gt;BossesModule</title>
<path fill="none" stroke="#000000" d="M408.0793,-122.1061C408.0793,-122.1061 408.0793,-140.991 408.0793,-140.991"/>
<polygon fill="#000000" stroke="#000000" points="404.5793,-140.9909 408.0793,-150.991 411.5793,-140.991 404.5793,-140.9909"/>
</g>
<!-- BossesComponent  -->
<g id="node8" class="node">
<title>BossesComponent </title>
<polygon fill="#fb8072" stroke="#000000" points="498.7177,-252 375.2823,-252 375.2823,-216 498.7177,-216 498.7177,-252"/>
<text text-anchor="middle" x="437" y="-229.8" font-family="Times,serif" font-size="14.00" fill="#000000">BossesComponent </text>
</g>
<!-- BossesModule&#45;&gt;BossesComponent  -->
<g id="edge7" class="edge">
<title>BossesModule&#45;&gt;BossesComponent </title>
<path fill="none" stroke="#000000" stroke-dasharray="5,2" d="M437,-187.1061C437,-187.1061 437,-205.991 437,-205.991"/>
<polygon fill="#000000" stroke="#000000" points="433.5001,-205.9909 437,-215.991 440.5001,-205.991 433.5001,-205.9909"/>
</g>
<!-- DisplayBuildModule -->
<g id="node6" class="node">
<title>DisplayBuildModule</title>
<polygon fill="#8dd3c7" stroke="#000000" points="262.2148,-122 259.2148,-126 238.2148,-126 235.2148,-122 127.7852,-122 127.7852,-86 262.2148,-86 262.2148,-122"/>
<text text-anchor="middle" x="195" y="-99.8" font-family="Times,serif" font-size="14.00" fill="#000000">DisplayBuildModule</text>
</g>
<!-- DisplayBuildModule&#45;&gt;BossesModule -->
<g id="edge5" class="edge">
<title>DisplayBuildModule&#45;&gt;BossesModule</title>
<path fill="none" stroke="#000000" d="M195,-122.0225C195,-139.3734 195,-163 195,-163 195,-163 377.736,-163 377.736,-163"/>
<polygon fill="#000000" stroke="#000000" points="377.736,-166.5001 387.736,-163 377.736,-159.5001 377.736,-166.5001"/>
</g>
<!-- StratModule -->
<g id="node7" class="node">
<title>StratModule</title>
<polygon fill="#8dd3c7" stroke="#000000" points="109.9888,-122 106.9888,-126 85.9888,-126 82.9888,-122 24.0112,-122 24.0112,-86 109.9888,-86 109.9888,-122"/>
<text text-anchor="middle" x="67" y="-99.8" font-family="Times,serif" font-size="14.00" fill="#000000">StratModule</text>
</g>
<!-- StratModule&#45;&gt;BossesModule -->
<g id="edge6" class="edge">
<title>StratModule&#45;&gt;BossesModule</title>
<path fill="none" stroke="#000000" d="M67,-122.2843C67,-143.3211 67,-175 67,-175 67,-175 377.4841,-175 377.4841,-175"/>
<polygon fill="#000000" stroke="#000000" points="377.4841,-178.5001 387.4841,-175 377.484,-171.5001 377.4841,-178.5001"/>
</g>
</g>
</svg>
