<?xml version="1.0" encoding="UTF-8" standalone="no"?>
<!DOCTYPE svg PUBLIC "-//W3C//DTD SVG 1.1//EN"
 "http://www.w3.org/Graphics/SVG/1.1/DTD/svg11.dtd">
<!-- Generated by graphviz version 2.40.1 (20161225.0304)
 -->
<!-- Title: dependencies Pages: 1 -->
<svg width="2583pt" height="284pt"
 viewBox="0.00 0.00 2583.00 284.00" xmlns="http://www.w3.org/2000/svg" xmlns:xlink="http://www.w3.org/1999/xlink">
<g id="graph0" class="graph" transform="scale(1 1) rotate(0) translate(4 280)">
<title>dependencies</title>
<polygon fill="#ffffff" stroke="transparent" points="-4,4 -4,-280 2579,-280 2579,4 -4,4"/>
<text text-anchor="start" x="1266.5091" y="-42.4" font-family="sans-serif" font-weight="bold" font-size="14.00" fill="#000000">Legend</text>
<polygon fill="#ffffb3" stroke="transparent" points="1053.5,-10 1053.5,-30 1073.5,-30 1073.5,-10 1053.5,-10"/>
<text text-anchor="start" x="1077.129" y="-15.4" font-family="sans-serif" font-size="14.00" fill="#000000"> &#160;Declarations</text>
<polygon fill="#8dd3c7" stroke="transparent" points="1166.5,-10 1166.5,-30 1186.5,-30 1186.5,-10 1166.5,-10"/>
<text text-anchor="start" x="1190.2251" y="-15.4" font-family="sans-serif" font-size="14.00" fill="#000000"> &#160;Module</text>
<polygon fill="#80b1d3" stroke="transparent" points="1252.5,-10 1252.5,-30 1272.5,-30 1272.5,-10 1252.5,-10"/>
<text text-anchor="start" x="1276.2812" y="-15.4" font-family="sans-serif" font-size="14.00" fill="#000000"> &#160;Bootstrap</text>
<polygon fill="#fdb462" stroke="transparent" points="1349.5,-10 1349.5,-30 1369.5,-30 1369.5,-10 1349.5,-10"/>
<text text-anchor="start" x="1373.1732" y="-15.4" font-family="sans-serif" font-size="14.00" fill="#000000"> &#160;Providers</text>
<polygon fill="#fb8072" stroke="transparent" points="1445.5,-10 1445.5,-30 1465.5,-30 1465.5,-10 1445.5,-10"/>
<text text-anchor="start" x="1469.2258" y="-15.4" font-family="sans-serif" font-size="14.00" fill="#000000"> &#160;Exports</text>
<g id="clust1" class="cluster">
<title>cluster_StratModule</title>
<polygon fill="none" stroke="#000000" stroke-dasharray="1,5" points="8,-70 8,-268 2567,-268 2567,-70 8,-70"/>
</g>
<g id="clust2" class="cluster">
<title>cluster_StratModule_declarations</title>
<polygon fill="none" stroke="#000000" points="16,-78 16,-130 2559,-130 2559,-78 16,-78"/>
</g>
<g id="clust21" class="cluster">
<title>cluster_StratModule_exports</title>
<polygon fill="none" stroke="#000000" points="1215,-208 1215,-260 1343,-260 1343,-208 1215,-208"/>
</g>
<!-- StratCairnComponent -->
<g id="node1" class="node">
<title>StratCairnComponent</title>
<polygon fill="#ffffb3" stroke="#000000" points="2551.3739,-122 2412.6261,-122 2412.6261,-86 2551.3739,-86 2551.3739,-122"/>
<text text-anchor="middle" x="2482" y="-99.8" font-family="Times,serif" font-size="14.00" fill="#000000">StratCairnComponent</text>
</g>
<!-- StratModule -->
<g id="node18" class="node">
<title>StratModule</title>
<polygon fill="#8dd3c7" stroke="#000000" points="1321.9888,-187 1318.9888,-191 1297.9888,-191 1294.9888,-187 1236.0112,-187 1236.0112,-151 1321.9888,-151 1321.9888,-187"/>
<text text-anchor="middle" x="1279" y="-164.8" font-family="Times,serif" font-size="14.00" fill="#000000">StratModule</text>
</g>
<!-- StratCairnComponent&#45;&gt;StratModule -->
<g id="edge1" class="edge">
<title>StratCairnComponent&#45;&gt;StratModule</title>
<path fill="none" stroke="#000000" d="M2482,-122.3228C2482,-145.6602 2482,-183 2482,-183 2482,-183 1332.1701,-183 1332.1701,-183"/>
<polygon fill="#000000" stroke="#000000" points="1332.1701,-179.5001 1322.1701,-183 1332.1701,-186.5001 1332.1701,-179.5001"/>
</g>
<!-- StratComponent -->
<g id="node2" class="node">
<title>StratComponent</title>
<polygon fill="#ffffb3" stroke="#000000" points="2394.7716,-122 2287.2284,-122 2287.2284,-86 2394.7716,-86 2394.7716,-122"/>
<text text-anchor="middle" x="2341" y="-99.8" font-family="Times,serif" font-size="14.00" fill="#000000">StratComponent</text>
</g>
<!-- StratComponent&#45;&gt;StratModule -->
<g id="edge2" class="edge">
<title>StratComponent&#45;&gt;StratModule</title>
<path fill="none" stroke="#000000" d="M2341,-122.1554C2341,-144.3519 2341,-179 2341,-179 2341,-179 1332.2787,-179 1332.2787,-179"/>
<polygon fill="#000000" stroke="#000000" points="1332.2787,-175.5001 1322.2787,-179 1332.2787,-182.5001 1332.2787,-175.5001"/>
</g>
<!-- StratDeiComponent -->
<g id="node3" class="node">
<title>StratDeiComponent</title>
<polygon fill="#ffffb3" stroke="#000000" points="2268.9832,-122 2141.0168,-122 2141.0168,-86 2268.9832,-86 2268.9832,-122"/>
<text text-anchor="middle" x="2205" y="-99.8" font-family="Times,serif" font-size="14.00" fill="#000000">StratDeiComponent</text>
</g>
<!-- StratDeiComponent&#45;&gt;StratModule -->
<g id="edge3" class="edge">
<title>StratDeiComponent&#45;&gt;StratModule</title>
<path fill="none" stroke="#000000" d="M2205,-122.2843C2205,-143.3211 2205,-175 2205,-175 2205,-175 1332.1128,-175 1332.1128,-175"/>
<polygon fill="#000000" stroke="#000000" points="1332.1129,-171.5001 1322.1128,-175 1332.1128,-178.5001 1332.1129,-171.5001"/>
</g>
<!-- StratDhuumComponent -->
<g id="node4" class="node">
<title>StratDhuumComponent</title>
<polygon fill="#ffffb3" stroke="#000000" points="2122.7688,-122 1973.2312,-122 1973.2312,-86 2122.7688,-86 2122.7688,-122"/>
<text text-anchor="middle" x="2048" y="-99.8" font-family="Times,serif" font-size="14.00" fill="#000000">StratDhuumComponent</text>
</g>
<!-- StratDhuumComponent&#45;&gt;StratModule -->
<g id="edge4" class="edge">
<title>StratDhuumComponent&#45;&gt;StratModule</title>
<path fill="none" stroke="#000000" d="M2048,-122.308C2048,-142.1455 2048,-171 2048,-171 2048,-171 1331.9926,-171 1331.9926,-171"/>
<polygon fill="#000000" stroke="#000000" points="1331.9926,-167.5001 1321.9926,-171 1331.9925,-174.5001 1331.9926,-167.5001"/>
</g>
<!-- StratEaterComponent -->
<g id="node5" class="node">
<title>StratEaterComponent</title>
<polygon fill="#ffffb3" stroke="#000000" points="1954.8047,-122 1817.1953,-122 1817.1953,-86 1954.8047,-86 1954.8047,-122"/>
<text text-anchor="middle" x="1886" y="-99.8" font-family="Times,serif" font-size="14.00" fill="#000000">StratEaterComponent</text>
</g>
<!-- StratEaterComponent&#45;&gt;StratModule -->
<g id="edge5" class="edge">
<title>StratEaterComponent&#45;&gt;StratModule</title>
<path fill="none" stroke="#000000" d="M1886,-122.2222C1886,-140.8285 1886,-167 1886,-167 1886,-167 1332.1673,-167 1332.1673,-167"/>
<polygon fill="#000000" stroke="#000000" points="1332.1674,-163.5001 1322.1673,-167 1332.1673,-170.5001 1332.1674,-163.5001"/>
</g>
<!-- StratGorseComponent -->
<g id="node6" class="node">
<title>StratGorseComponent</title>
<polygon fill="#ffffb3" stroke="#000000" points="1799.6979,-122 1658.3021,-122 1658.3021,-86 1799.6979,-86 1799.6979,-122"/>
<text text-anchor="middle" x="1729" y="-99.8" font-family="Times,serif" font-size="14.00" fill="#000000">StratGorseComponent</text>
</g>
<!-- StratGorseComponent&#45;&gt;StratModule -->
<g id="edge6" class="edge">
<title>StratGorseComponent&#45;&gt;StratModule</title>
<path fill="none" stroke="#000000" d="M1729,-122.0225C1729,-139.3734 1729,-163 1729,-163 1729,-163 1332.1479,-163 1332.1479,-163"/>
<polygon fill="#000000" stroke="#000000" points="1332.1479,-159.5001 1322.1479,-163 1332.1479,-166.5001 1332.1479,-159.5001"/>
</g>
<!-- StratKcComponent -->
<g id="node7" class="node">
<title>StratKcComponent</title>
<polygon fill="#ffffb3" stroke="#000000" points="1640.0926,-122 1515.9074,-122 1515.9074,-86 1640.0926,-86 1640.0926,-122"/>
<text text-anchor="middle" x="1578" y="-99.8" font-family="Times,serif" font-size="14.00" fill="#000000">StratKcComponent</text>
</g>
<!-- StratKcComponent&#45;&gt;StratModule -->
<g id="edge7" class="edge">
<title>StratKcComponent&#45;&gt;StratModule</title>
<path fill="none" stroke="#000000" d="M1578,-122.0091C1578,-138.0494 1578,-159 1578,-159 1578,-159 1332.1578,-159 1332.1578,-159"/>
<polygon fill="#000000" stroke="#000000" points="1332.1579,-155.5001 1322.1578,-159 1332.1578,-162.5001 1332.1579,-155.5001"/>
</g>
<!-- StratKingComponent -->
<g id="node8" class="node">
<title>StratKingComponent</title>
<polygon fill="#ffffb3" stroke="#000000" points="1497.7688,-122 1362.2312,-122 1362.2312,-86 1497.7688,-86 1497.7688,-122"/>
<text text-anchor="middle" x="1430" y="-99.8" font-family="Times,serif" font-size="14.00" fill="#000000">StratKingComponent</text>
</g>
<!-- StratKingComponent&#45;&gt;StratModule -->
<g id="edge8" class="edge">
<title>StratKingComponent&#45;&gt;StratModule</title>
<path fill="none" stroke="#000000" d="M1430,-122.1243C1430,-136.7832 1430,-155 1430,-155 1430,-155 1332.2705,-155 1332.2705,-155"/>
<polygon fill="#000000" stroke="#000000" points="1332.2706,-151.5001 1322.2705,-155 1332.2705,-158.5001 1332.2706,-151.5001"/>
</g>
<!-- StratMatComponent -->
<g id="node9" class="node">
<title>StratMatComponent</title>
<polygon fill="#ffffb3" stroke="#000000" points="1344.3216,-122 1213.6784,-122 1213.6784,-86 1344.3216,-86 1344.3216,-122"/>
<text text-anchor="middle" x="1279" y="-99.8" font-family="Times,serif" font-size="14.00" fill="#000000">StratMatComponent</text>
</g>
<!-- StratMatComponent&#45;&gt;StratModule -->
<g id="edge9" class="edge">
<title>StratMatComponent&#45;&gt;StratModule</title>
<path fill="none" stroke="#000000" d="M1279,-122.1061C1279,-122.1061 1279,-140.991 1279,-140.991"/>
<polygon fill="#000000" stroke="#000000" points="1275.5001,-140.9909 1279,-150.991 1282.5001,-140.991 1275.5001,-140.9909"/>
</g>
<!-- StratMoComponent -->
<g id="node10" class="node">
<title>StratMoComponent</title>
<polygon fill="#ffffb3" stroke="#000000" points="1195.7162,-122 1068.2838,-122 1068.2838,-86 1195.7162,-86 1195.7162,-122"/>
<text text-anchor="middle" x="1132" y="-99.8" font-family="Times,serif" font-size="14.00" fill="#000000">StratMoComponent</text>
</g>
<!-- StratMoComponent&#45;&gt;StratModule -->
<g id="edge10" class="edge">
<title>StratMoComponent&#45;&gt;StratModule</title>
<path fill="none" stroke="#000000" d="M1132,-122.1243C1132,-136.7832 1132,-155 1132,-155 1132,-155 1225.6902,-155 1225.6902,-155"/>
<polygon fill="#000000" stroke="#000000" points="1225.6903,-158.5001 1235.6902,-155 1225.6902,-151.5001 1225.6903,-158.5001"/>
</g>
<!-- StratRiverComponent -->
<g id="node11" class="node">
<title>StratRiverComponent</title>
<polygon fill="#ffffb3" stroke="#000000" points="1050.3739,-122 911.6261,-122 911.6261,-86 1050.3739,-86 1050.3739,-122"/>
<text text-anchor="middle" x="981" y="-99.8" font-family="Times,serif" font-size="14.00" fill="#000000">StratRiverComponent</text>
</g>
<!-- StratRiverComponent&#45;&gt;StratModule -->
<g id="edge11" class="edge">
<title>StratRiverComponent&#45;&gt;StratModule</title>
<path fill="none" stroke="#000000" d="M981,-122.0091C981,-138.0494 981,-159 981,-159 981,-159 1225.9865,-159 1225.9865,-159"/>
<polygon fill="#000000" stroke="#000000" points="1225.9865,-162.5001 1235.9865,-159 1225.9865,-155.5001 1225.9865,-162.5001"/>
</g>
<!-- StratSabComponent -->
<g id="node12" class="node">
<title>StratSabComponent</title>
<polygon fill="#ffffb3" stroke="#000000" points="893.2688,-122 764.7312,-122 764.7312,-86 893.2688,-86 893.2688,-122"/>
<text text-anchor="middle" x="829" y="-99.8" font-family="Times,serif" font-size="14.00" fill="#000000">StratSabComponent</text>
</g>
<!-- StratSabComponent&#45;&gt;StratModule -->
<g id="edge12" class="edge">
<title>StratSabComponent&#45;&gt;StratModule</title>
<path fill="none" stroke="#000000" d="M829,-122.0225C829,-139.3734 829,-163 829,-163 829,-163 1225.8521,-163 1225.8521,-163"/>
<polygon fill="#000000" stroke="#000000" points="1225.8521,-166.5001 1235.8521,-163 1225.8521,-159.5001 1225.8521,-166.5001"/>
</g>
<!-- StratSamComponent -->
<g id="node13" class="node">
<title>StratSamComponent</title>
<polygon fill="#ffffb3" stroke="#000000" points="746.1596,-122 613.8404,-122 613.8404,-86 746.1596,-86 746.1596,-122"/>
<text text-anchor="middle" x="680" y="-99.8" font-family="Times,serif" font-size="14.00" fill="#000000">StratSamComponent</text>
</g>
<!-- StratSamComponent&#45;&gt;StratModule -->
<g id="edge13" class="edge">
<title>StratSamComponent&#45;&gt;StratModule</title>
<path fill="none" stroke="#000000" d="M680,-122.2222C680,-140.8285 680,-167 680,-167 680,-167 1225.9214,-167 1225.9214,-167"/>
<polygon fill="#000000" stroke="#000000" points="1225.9214,-170.5001 1235.9214,-167 1225.9214,-163.5001 1225.9214,-170.5001"/>
</g>
<!-- StratSlothComponent -->
<g id="node14" class="node">
<title>StratSlothComponent</title>
<polygon fill="#ffffb3" stroke="#000000" points="595.8356,-122 458.1644,-122 458.1644,-86 595.8356,-86 595.8356,-122"/>
<text text-anchor="middle" x="527" y="-99.8" font-family="Times,serif" font-size="14.00" fill="#000000">StratSlothComponent</text>
</g>
<!-- StratSlothComponent&#45;&gt;StratModule -->
<g id="edge14" class="edge">
<title>StratSlothComponent&#45;&gt;StratModule</title>
<path fill="none" stroke="#000000" d="M527,-122.308C527,-142.1455 527,-171 527,-171 527,-171 1225.8683,-171 1225.8683,-171"/>
<polygon fill="#000000" stroke="#000000" points="1225.8683,-174.5001 1235.8683,-171 1225.8682,-167.5001 1225.8683,-174.5001"/>
</g>
<!-- StratSsComponent -->
<g id="node15" class="node">
<title>StratSsComponent</title>
<polygon fill="#ffffb3" stroke="#000000" points="440.4986,-122 319.5014,-122 319.5014,-86 440.4986,-86 440.4986,-122"/>
<text text-anchor="middle" x="380" y="-99.8" font-family="Times,serif" font-size="14.00" fill="#000000">StratSsComponent</text>
</g>
<!-- StratSsComponent&#45;&gt;StratModule -->
<g id="edge15" class="edge">
<title>StratSsComponent&#45;&gt;StratModule</title>
<path fill="none" stroke="#000000" d="M380,-122.2843C380,-143.3211 380,-175 380,-175 380,-175 1225.9422,-175 1225.9422,-175"/>
<polygon fill="#000000" stroke="#000000" points="1225.9423,-178.5001 1235.9422,-175 1225.9422,-171.5001 1225.9423,-178.5001"/>
</g>
<!-- StratVgComponent -->
<g id="node16" class="node">
<title>StratVgComponent</title>
<polygon fill="#ffffb3" stroke="#000000" points="301.3781,-122 176.6219,-122 176.6219,-86 301.3781,-86 301.3781,-122"/>
<text text-anchor="middle" x="239" y="-99.8" font-family="Times,serif" font-size="14.00" fill="#000000">StratVgComponent</text>
</g>
<!-- StratVgComponent&#45;&gt;StratModule -->
<g id="edge16" class="edge">
<title>StratVgComponent&#45;&gt;StratModule</title>
<path fill="none" stroke="#000000" d="M239,-122.1554C239,-144.3519 239,-179 239,-179 239,-179 1225.9648,-179 1225.9648,-179"/>
<polygon fill="#000000" stroke="#000000" points="1225.9648,-182.5001 1235.9648,-179 1225.9647,-175.5001 1225.9648,-182.5001"/>
</g>
<!-- StratXeraComponent -->
<g id="node17" class="node">
<title>StratXeraComponent</title>
<polygon fill="#ffffb3" stroke="#000000" points="158.4678,-122 23.5322,-122 23.5322,-86 158.4678,-86 158.4678,-122"/>
<text text-anchor="middle" x="91" y="-99.8" font-family="Times,serif" font-size="14.00" fill="#000000">StratXeraComponent</text>
</g>
<!-- StratXeraComponent&#45;&gt;StratModule -->
<g id="edge17" class="edge">
<title>StratXeraComponent&#45;&gt;StratModule</title>
<path fill="none" stroke="#000000" d="M91,-122.3228C91,-145.6602 91,-183 91,-183 91,-183 1225.6637,-183 1225.6637,-183"/>
<polygon fill="#000000" stroke="#000000" points="1225.6638,-186.5001 1235.6637,-183 1225.6637,-179.5001 1225.6638,-186.5001"/>
</g>
<!-- StratComponent  -->
<g id="node19" class="node">
<title>StratComponent </title>
<polygon fill="#fb8072" stroke="#000000" points="1334.7717,-252 1223.2283,-252 1223.2283,-216 1334.7717,-216 1334.7717,-252"/>
<text text-anchor="middle" x="1279" y="-229.8" font-family="Times,serif" font-size="14.00" fill="#000000">StratComponent </text>
</g>
<!-- StratModule&#45;&gt;StratComponent  -->
<g id="edge18" class="edge">
<title>StratModule&#45;&gt;StratComponent </title>
<path fill="none" stroke="#000000" stroke-dasharray="5,2" d="M1279,-187.1061C1279,-187.1061 1279,-205.991 1279,-205.991"/>
<polygon fill="#000000" stroke="#000000" points="1275.5001,-205.9909 1279,-215.991 1282.5001,-205.991 1275.5001,-205.9909"/>
</g>
</g>
</svg>
