<?xml version="1.0" encoding="UTF-8" standalone="no"?>
<!DOCTYPE svg PUBLIC "-//W3C//DTD SVG 1.1//EN"
 "http://www.w3.org/Graphics/SVG/1.1/DTD/svg11.dtd">
<!-- Generated by graphviz version 2.40.1 (20161225.0304)
 -->
<!-- Title: dependencies Pages: 1 -->
<svg width="2582pt" height="284pt"
 viewBox="0.00 0.00 2582.00 284.00" xmlns="http://www.w3.org/2000/svg" xmlns:xlink="http://www.w3.org/1999/xlink">
<g id="graph0" class="graph" transform="scale(1 1) rotate(0) translate(4 280)">
<title>dependencies</title>
<polygon fill="#ffffff" stroke="transparent" points="-4,4 -4,-280 2578,-280 2578,4 -4,4"/>
<text text-anchor="start" x="1266.0091" y="-42.4" font-family="sans-serif" font-weight="bold" font-size="14.00" fill="#000000">Legend</text>
<polygon fill="#ffffb3" stroke="transparent" points="1053,-10 1053,-30 1073,-30 1073,-10 1053,-10"/>
<text text-anchor="start" x="1076.629" y="-15.4" font-family="sans-serif" font-size="14.00" fill="#000000"> &#160;Declarations</text>
<polygon fill="#8dd3c7" stroke="transparent" points="1166,-10 1166,-30 1186,-30 1186,-10 1166,-10"/>
<text text-anchor="start" x="1189.7251" y="-15.4" font-family="sans-serif" font-size="14.00" fill="#000000"> &#160;Module</text>
<polygon fill="#80b1d3" stroke="transparent" points="1252,-10 1252,-30 1272,-30 1272,-10 1252,-10"/>
<text text-anchor="start" x="1275.7812" y="-15.4" font-family="sans-serif" font-size="14.00" fill="#000000"> &#160;Bootstrap</text>
<polygon fill="#fdb462" stroke="transparent" points="1349,-10 1349,-30 1369,-30 1369,-10 1349,-10"/>
<text text-anchor="start" x="1372.6732" y="-15.4" font-family="sans-serif" font-size="14.00" fill="#000000"> &#160;Providers</text>
<polygon fill="#fb8072" stroke="transparent" points="1445,-10 1445,-30 1465,-30 1465,-10 1445,-10"/>
<text text-anchor="start" x="1468.7258" y="-15.4" font-family="sans-serif" font-size="14.00" fill="#000000"> &#160;Exports</text>
<g id="clust1" class="cluster">
<title>cluster_StratModule</title>
<polygon fill="none" stroke="#000000" stroke-dasharray="1,5" points="8,-70 8,-268 2566,-268 2566,-70 8,-70"/>
</g>
<g id="clust2" class="cluster">
<title>cluster_StratModule_declarations</title>
<polygon fill="none" stroke="#000000" points="16,-78 16,-130 2558,-130 2558,-78 16,-78"/>
</g>
<g id="clust21" class="cluster">
<title>cluster_StratModule_exports</title>
<polygon fill="none" stroke="#000000" points="1243,-208 1243,-260 1371,-260 1371,-208 1243,-208"/>
</g>
<!-- StratComponent -->
<g id="node1" class="node">
<title>StratComponent</title>
<polygon fill="#ffffb3" stroke="#000000" points="2549.7716,-122 2442.2284,-122 2442.2284,-86 2549.7716,-86 2549.7716,-122"/>
<text text-anchor="middle" x="2496" y="-99.8" font-family="Times,serif" font-size="14.00" fill="#000000">StratComponent</text>
</g>
<!-- StratModule -->
<g id="node18" class="node">
<title>StratModule</title>
<polygon fill="#8dd3c7" stroke="#000000" points="1349.9888,-187 1346.9888,-191 1325.9888,-191 1322.9888,-187 1264.0112,-187 1264.0112,-151 1349.9888,-151 1349.9888,-187"/>
<text text-anchor="middle" x="1307" y="-164.8" font-family="Times,serif" font-size="14.00" fill="#000000">StratModule</text>
</g>
<!-- StratComponent&#45;&gt;StratModule -->
<g id="edge1" class="edge">
<title>StratComponent&#45;&gt;StratModule</title>
<path fill="none" stroke="#000000" d="M2496,-122.3228C2496,-145.6602 2496,-183 2496,-183 2496,-183 1360.0196,-183 1360.0196,-183"/>
<polygon fill="#000000" stroke="#000000" points="1360.0196,-179.5001 1350.0196,-183 1360.0195,-186.5001 1360.0196,-179.5001"/>
</g>
<!-- StratVgComponent -->
<g id="node2" class="node">
<title>StratVgComponent</title>
<polygon fill="#ffffb3" stroke="#000000" points="2424.3781,-122 2299.6219,-122 2299.6219,-86 2424.3781,-86 2424.3781,-122"/>
<text text-anchor="middle" x="2362" y="-99.8" font-family="Times,serif" font-size="14.00" fill="#000000">StratVgComponent</text>
</g>
<!-- StratVgComponent&#45;&gt;StratModule -->
<g id="edge2" class="edge">
<title>StratVgComponent&#45;&gt;StratModule</title>
<path fill="none" stroke="#000000" d="M2362,-122.1554C2362,-144.3519 2362,-179 2362,-179 2362,-179 1359.9934,-179 1359.9934,-179"/>
<polygon fill="#000000" stroke="#000000" points="1359.9935,-175.5001 1349.9934,-179 1359.9934,-182.5001 1359.9935,-175.5001"/>
</g>
<!-- StratGorseComponent -->
<g id="node3" class="node">
<title>StratGorseComponent</title>
<polygon fill="#ffffb3" stroke="#000000" points="2281.6979,-122 2140.3021,-122 2140.3021,-86 2281.6979,-86 2281.6979,-122"/>
<text text-anchor="middle" x="2211" y="-99.8" font-family="Times,serif" font-size="14.00" fill="#000000">StratGorseComponent</text>
</g>
<!-- StratGorseComponent&#45;&gt;StratModule -->
<g id="edge3" class="edge">
<title>StratGorseComponent&#45;&gt;StratModule</title>
<path fill="none" stroke="#000000" d="M2211,-122.2843C2211,-143.3211 2211,-175 2211,-175 2211,-175 1359.9936,-175 1359.9936,-175"/>
<polygon fill="#000000" stroke="#000000" points="1359.9937,-171.5001 1349.9936,-175 1359.9936,-178.5001 1359.9937,-171.5001"/>
</g>
<!-- StratSabComponent -->
<g id="node4" class="node">
<title>StratSabComponent</title>
<polygon fill="#ffffb3" stroke="#000000" points="2122.2688,-122 1993.7312,-122 1993.7312,-86 2122.2688,-86 2122.2688,-122"/>
<text text-anchor="middle" x="2058" y="-99.8" font-family="Times,serif" font-size="14.00" fill="#000000">StratSabComponent</text>
</g>
<!-- StratSabComponent&#45;&gt;StratModule -->
<g id="edge4" class="edge">
<title>StratSabComponent&#45;&gt;StratModule</title>
<path fill="none" stroke="#000000" d="M2058,-122.308C2058,-142.1455 2058,-171 2058,-171 2058,-171 1360.0744,-171 1360.0744,-171"/>
<polygon fill="#000000" stroke="#000000" points="1360.0744,-167.5001 1350.0744,-171 1360.0743,-174.5001 1360.0744,-167.5001"/>
</g>
<!-- StratSlothComponent -->
<g id="node5" class="node">
<title>StratSlothComponent</title>
<polygon fill="#ffffb3" stroke="#000000" points="1975.8356,-122 1838.1644,-122 1838.1644,-86 1975.8356,-86 1975.8356,-122"/>
<text text-anchor="middle" x="1907" y="-99.8" font-family="Times,serif" font-size="14.00" fill="#000000">StratSlothComponent</text>
</g>
<!-- StratSlothComponent&#45;&gt;StratModule -->
<g id="edge5" class="edge">
<title>StratSlothComponent&#45;&gt;StratModule</title>
<path fill="none" stroke="#000000" d="M1907,-122.2222C1907,-140.8285 1907,-167 1907,-167 1907,-167 1360.1505,-167 1360.1505,-167"/>
<polygon fill="#000000" stroke="#000000" points="1360.1506,-163.5001 1350.1505,-167 1360.1505,-170.5001 1360.1506,-163.5001"/>
</g>
<!-- StratMatComponent -->
<g id="node6" class="node">
<title>StratMatComponent</title>
<polygon fill="#ffffb3" stroke="#000000" points="1820.3216,-122 1689.6784,-122 1689.6784,-86 1820.3216,-86 1820.3216,-122"/>
<text text-anchor="middle" x="1755" y="-99.8" font-family="Times,serif" font-size="14.00" fill="#000000">StratMatComponent</text>
</g>
<!-- StratMatComponent&#45;&gt;StratModule -->
<g id="edge6" class="edge">
<title>StratMatComponent&#45;&gt;StratModule</title>
<path fill="none" stroke="#000000" d="M1755,-122.0225C1755,-139.3734 1755,-163 1755,-163 1755,-163 1360.3632,-163 1360.3632,-163"/>
<polygon fill="#000000" stroke="#000000" points="1360.3632,-159.5001 1350.3632,-163 1360.3631,-166.5001 1360.3632,-159.5001"/>
</g>
<!-- StratKcComponent -->
<g id="node7" class="node">
<title>StratKcComponent</title>
<polygon fill="#ffffb3" stroke="#000000" points="1672.0926,-122 1547.9074,-122 1547.9074,-86 1672.0926,-86 1672.0926,-122"/>
<text text-anchor="middle" x="1610" y="-99.8" font-family="Times,serif" font-size="14.00" fill="#000000">StratKcComponent</text>
</g>
<!-- StratKcComponent&#45;&gt;StratModule -->
<g id="edge7" class="edge">
<title>StratKcComponent&#45;&gt;StratModule</title>
<path fill="none" stroke="#000000" d="M1610,-122.0091C1610,-138.0494 1610,-159 1610,-159 1610,-159 1360.0907,-159 1360.0907,-159"/>
<polygon fill="#000000" stroke="#000000" points="1360.0908,-155.5001 1350.0907,-159 1360.0907,-162.5001 1360.0908,-155.5001"/>
</g>
<!-- StratXeraComponent -->
<g id="node8" class="node">
<title>StratXeraComponent</title>
<polygon fill="#ffffb3" stroke="#000000" points="1529.4678,-122 1394.5322,-122 1394.5322,-86 1529.4678,-86 1529.4678,-122"/>
<text text-anchor="middle" x="1462" y="-99.8" font-family="Times,serif" font-size="14.00" fill="#000000">StratXeraComponent</text>
</g>
<!-- StratXeraComponent&#45;&gt;StratModule -->
<g id="edge8" class="edge">
<title>StratXeraComponent&#45;&gt;StratModule</title>
<path fill="none" stroke="#000000" d="M1462,-122.1243C1462,-136.7832 1462,-155 1462,-155 1462,-155 1360.1761,-155 1360.1761,-155"/>
<polygon fill="#000000" stroke="#000000" points="1360.1762,-151.5001 1350.1761,-155 1360.1761,-158.5001 1360.1762,-151.5001"/>
</g>
<!-- StratCairnComponent -->
<g id="node9" class="node">
<title>StratCairnComponent</title>
<polygon fill="#ffffb3" stroke="#000000" points="1376.3739,-122 1237.6261,-122 1237.6261,-86 1376.3739,-86 1376.3739,-122"/>
<text text-anchor="middle" x="1307" y="-99.8" font-family="Times,serif" font-size="14.00" fill="#000000">StratCairnComponent</text>
</g>
<!-- StratCairnComponent&#45;&gt;StratModule -->
<g id="edge9" class="edge">
<title>StratCairnComponent&#45;&gt;StratModule</title>
<path fill="none" stroke="#000000" d="M1307,-122.1061C1307,-122.1061 1307,-140.991 1307,-140.991"/>
<polygon fill="#000000" stroke="#000000" points="1303.5001,-140.9909 1307,-150.991 1310.5001,-140.991 1303.5001,-140.9909"/>
</g>
<!-- StratMoComponent -->
<g id="node10" class="node">
<title>StratMoComponent</title>
<polygon fill="#ffffb3" stroke="#000000" points="1219.7162,-122 1092.2838,-122 1092.2838,-86 1219.7162,-86 1219.7162,-122"/>
<text text-anchor="middle" x="1156" y="-99.8" font-family="Times,serif" font-size="14.00" fill="#000000">StratMoComponent</text>
</g>
<!-- StratMoComponent&#45;&gt;StratModule -->
<g id="edge10" class="edge">
<title>StratMoComponent&#45;&gt;StratModule</title>
<path fill="none" stroke="#000000" d="M1156,-122.1243C1156,-136.7832 1156,-155 1156,-155 1156,-155 1253.7295,-155 1253.7295,-155"/>
<polygon fill="#000000" stroke="#000000" points="1253.7295,-158.5001 1263.7295,-155 1253.7294,-151.5001 1253.7295,-158.5001"/>
</g>
<!-- StratSamComponent -->
<g id="node11" class="node">
<title>StratSamComponent</title>
<polygon fill="#ffffb3" stroke="#000000" points="1074.1596,-122 941.8404,-122 941.8404,-86 1074.1596,-86 1074.1596,-122"/>
<text text-anchor="middle" x="1008" y="-99.8" font-family="Times,serif" font-size="14.00" fill="#000000">StratSamComponent</text>
</g>
<!-- StratSamComponent&#45;&gt;StratModule -->
<g id="edge11" class="edge">
<title>StratSamComponent&#45;&gt;StratModule</title>
<path fill="none" stroke="#000000" d="M1008,-122.0091C1008,-138.0494 1008,-159 1008,-159 1008,-159 1253.8422,-159 1253.8422,-159"/>
<polygon fill="#000000" stroke="#000000" points="1253.8422,-162.5001 1263.8422,-159 1253.8421,-155.5001 1253.8422,-162.5001"/>
</g>
<!-- StratDeiComponent -->
<g id="node12" class="node">
<title>StratDeiComponent</title>
<polygon fill="#ffffb3" stroke="#000000" points="923.9832,-122 796.0168,-122 796.0168,-86 923.9832,-86 923.9832,-122"/>
<text text-anchor="middle" x="860" y="-99.8" font-family="Times,serif" font-size="14.00" fill="#000000">StratDeiComponent</text>
</g>
<!-- StratDeiComponent&#45;&gt;StratModule -->
<g id="edge12" class="edge">
<title>StratDeiComponent&#45;&gt;StratModule</title>
<path fill="none" stroke="#000000" d="M860,-122.0225C860,-139.3734 860,-163 860,-163 860,-163 1253.7336,-163 1253.7336,-163"/>
<polygon fill="#000000" stroke="#000000" points="1253.7336,-166.5001 1263.7336,-163 1253.7336,-159.5001 1253.7336,-166.5001"/>
</g>
<!-- StratSsComponent -->
<g id="node13" class="node">
<title>StratSsComponent</title>
<polygon fill="#ffffb3" stroke="#000000" points="778.4986,-122 657.5014,-122 657.5014,-86 778.4986,-86 778.4986,-122"/>
<text text-anchor="middle" x="718" y="-99.8" font-family="Times,serif" font-size="14.00" fill="#000000">StratSsComponent</text>
</g>
<!-- StratSsComponent&#45;&gt;StratModule -->
<g id="edge13" class="edge">
<title>StratSsComponent&#45;&gt;StratModule</title>
<path fill="none" stroke="#000000" d="M718,-122.2222C718,-140.8285 718,-167 718,-167 718,-167 1253.6894,-167 1253.6894,-167"/>
<polygon fill="#000000" stroke="#000000" points="1253.6895,-170.5001 1263.6894,-167 1253.6894,-163.5001 1253.6895,-170.5001"/>
</g>
<!-- StratDhuumComponent -->
<g id="node14" class="node">
<title>StratDhuumComponent</title>
<polygon fill="#ffffb3" stroke="#000000" points="639.7688,-122 490.2312,-122 490.2312,-86 639.7688,-86 639.7688,-122"/>
<text text-anchor="middle" x="565" y="-99.8" font-family="Times,serif" font-size="14.00" fill="#000000">StratDhuumComponent</text>
</g>
<!-- StratDhuumComponent&#45;&gt;StratModule -->
<g id="edge14" class="edge">
<title>StratDhuumComponent&#45;&gt;StratModule</title>
<path fill="none" stroke="#000000" d="M565,-122.308C565,-142.1455 565,-171 565,-171 565,-171 1253.8998,-171 1253.8998,-171"/>
<polygon fill="#000000" stroke="#000000" points="1253.8998,-174.5001 1263.8998,-171 1253.8997,-167.5001 1253.8998,-174.5001"/>
</g>
<!-- StratRiverComponent -->
<g id="node15" class="node">
<title>StratRiverComponent</title>
<polygon fill="#ffffb3" stroke="#000000" points="472.3739,-122 333.6261,-122 333.6261,-86 472.3739,-86 472.3739,-122"/>
<text text-anchor="middle" x="403" y="-99.8" font-family="Times,serif" font-size="14.00" fill="#000000">StratRiverComponent</text>
</g>
<!-- StratRiverComponent&#45;&gt;StratModule -->
<g id="edge15" class="edge">
<title>StratRiverComponent&#45;&gt;StratModule</title>
<path fill="none" stroke="#000000" d="M403,-122.2843C403,-143.3211 403,-175 403,-175 403,-175 1254.0064,-175 1254.0064,-175"/>
<polygon fill="#000000" stroke="#000000" points="1254.0064,-178.5001 1264.0064,-175 1254.0063,-171.5001 1254.0064,-178.5001"/>
</g>
<!-- StratKingComponent -->
<g id="node16" class="node">
<title>StratKingComponent</title>
<polygon fill="#ffffb3" stroke="#000000" points="315.7688,-122 180.2312,-122 180.2312,-86 315.7688,-86 315.7688,-122"/>
<text text-anchor="middle" x="248" y="-99.8" font-family="Times,serif" font-size="14.00" fill="#000000">StratKingComponent</text>
</g>
<!-- StratKingComponent&#45;&gt;StratModule -->
<g id="edge16" class="edge">
<title>StratKingComponent&#45;&gt;StratModule</title>
<path fill="none" stroke="#000000" d="M248,-122.1554C248,-144.3519 248,-179 248,-179 248,-179 1253.8436,-179 1253.8436,-179"/>
<polygon fill="#000000" stroke="#000000" points="1253.8436,-182.5001 1263.8436,-179 1253.8435,-175.5001 1253.8436,-182.5001"/>
</g>
<!-- StratEaterComponent -->
<g id="node17" class="node">
<title>StratEaterComponent</title>
<polygon fill="#ffffb3" stroke="#000000" points="161.8047,-122 24.1953,-122 24.1953,-86 161.8047,-86 161.8047,-122"/>
<text text-anchor="middle" x="93" y="-99.8" font-family="Times,serif" font-size="14.00" fill="#000000">StratEaterComponent</text>
</g>
<!-- StratEaterComponent&#45;&gt;StratModule -->
<g id="edge17" class="edge">
<title>StratEaterComponent&#45;&gt;StratModule</title>
<path fill="none" stroke="#000000" d="M93,-122.3228C93,-145.6602 93,-183 93,-183 93,-183 1253.7931,-183 1253.7931,-183"/>
<polygon fill="#000000" stroke="#000000" points="1253.7931,-186.5001 1263.7931,-183 1253.7931,-179.5001 1253.7931,-186.5001"/>
</g>
<!-- StratComponent  -->
<g id="node19" class="node">
<title>StratComponent </title>
<polygon fill="#fb8072" stroke="#000000" points="1362.7717,-252 1251.2283,-252 1251.2283,-216 1362.7717,-216 1362.7717,-252"/>
<text text-anchor="middle" x="1307" y="-229.8" font-family="Times,serif" font-size="14.00" fill="#000000">StratComponent </text>
</g>
<!-- StratModule&#45;&gt;StratComponent  -->
<g id="edge18" class="edge">
<title>StratModule&#45;&gt;StratComponent </title>
<path fill="none" stroke="#000000" stroke-dasharray="5,2" d="M1307,-187.1061C1307,-187.1061 1307,-205.991 1307,-205.991"/>
<polygon fill="#000000" stroke="#000000" points="1303.5001,-205.9909 1307,-215.991 1310.5001,-205.991 1303.5001,-205.9909"/>
</g>
</g>
</svg>
