<?xml version="1.0" encoding="UTF-8" standalone="no"?>
<!DOCTYPE svg PUBLIC "-//W3C//DTD SVG 1.1//EN"
 "http://www.w3.org/Graphics/SVG/1.1/DTD/svg11.dtd">
<!-- Generated by graphviz version 2.40.1 (20161225.0304)
 -->
<!-- Title: dependencies Pages: 1 -->
<svg width="742pt" height="284pt"
 viewBox="0.00 0.00 742.00 284.00" xmlns="http://www.w3.org/2000/svg" xmlns:xlink="http://www.w3.org/1999/xlink">
<g id="graph0" class="graph" transform="scale(1 1) rotate(0) translate(4 280)">
<title>dependencies</title>
<polygon fill="#ffffff" stroke="transparent" points="-4,4 -4,-280 738,-280 738,4 -4,4"/>
<text text-anchor="start" x="346.0091" y="-42.4" font-family="sans-serif" font-weight="bold" font-size="14.00" fill="#000000">Legend</text>
<polygon fill="#ffffb3" stroke="transparent" points="133,-10 133,-30 153,-30 153,-10 133,-10"/>
<text text-anchor="start" x="156.629" y="-15.4" font-family="sans-serif" font-size="14.00" fill="#000000"> &#160;Declarations</text>
<polygon fill="#8dd3c7" stroke="transparent" points="246,-10 246,-30 266,-30 266,-10 246,-10"/>
<text text-anchor="start" x="269.7251" y="-15.4" font-family="sans-serif" font-size="14.00" fill="#000000"> &#160;Module</text>
<polygon fill="#80b1d3" stroke="transparent" points="332,-10 332,-30 352,-30 352,-10 332,-10"/>
<text text-anchor="start" x="355.7812" y="-15.4" font-family="sans-serif" font-size="14.00" fill="#000000"> &#160;Bootstrap</text>
<polygon fill="#fdb462" stroke="transparent" points="429,-10 429,-30 449,-30 449,-10 429,-10"/>
<text text-anchor="start" x="452.6732" y="-15.4" font-family="sans-serif" font-size="14.00" fill="#000000"> &#160;Providers</text>
<polygon fill="#fb8072" stroke="transparent" points="525,-10 525,-30 545,-30 545,-10 525,-10"/>
<text text-anchor="start" x="548.7258" y="-15.4" font-family="sans-serif" font-size="14.00" fill="#000000"> &#160;Exports</text>
<g id="clust1" class="cluster">
<title>cluster_AppModule</title>
<polygon fill="none" stroke="#000000" stroke-dasharray="1,5" points="8,-70 8,-268 726,-268 726,-70 8,-70"/>
</g>
<g id="clust2" class="cluster">
<title>cluster_AppModule_declarations</title>
<polygon fill="none" stroke="#000000" points="414,-78 414,-130 718,-130 718,-78 414,-78"/>
</g>
<g id="clust5" class="cluster">
<title>cluster_AppModule_imports</title>
<polygon fill="none" stroke="#000000" points="16,-78 16,-130 406,-130 406,-78 16,-78"/>
</g>
<g id="clust7" class="cluster">
<title>cluster_AppModule_bootstrap</title>
<polygon fill="none" stroke="#000000" points="272,-208 272,-260 396,-260 396,-208 272,-208"/>
</g>
<!-- AppComponent -->
<g id="node1" class="node">
<title>AppComponent</title>
<polygon fill="#ffffb3" stroke="#000000" points="709.9399,-122 604.0601,-122 604.0601,-86 709.9399,-86 709.9399,-122"/>
<text text-anchor="middle" x="657" y="-99.8" font-family="Times,serif" font-size="14.00" fill="#000000">AppComponent</text>
</g>
<!-- AppModule -->
<g id="node3" class="node">
<title>AppModule</title>
<polygon fill="#8dd3c7" stroke="#000000" points="375.6571,-187 372.6571,-191 351.6571,-191 348.6571,-187 292.3429,-187 292.3429,-151 375.6571,-151 375.6571,-187"/>
<text text-anchor="middle" x="334" y="-164.8" font-family="Times,serif" font-size="14.00" fill="#000000">AppModule</text>
</g>
<!-- AppComponent&#45;&gt;AppModule -->
<g id="edge1" class="edge">
<title>AppComponent&#45;&gt;AppModule</title>
<path fill="none" stroke="#000000" d="M657,-122.2843C657,-143.3211 657,-175 657,-175 657,-175 385.8955,-175 385.8955,-175"/>
<polygon fill="#000000" stroke="#000000" points="385.8955,-171.5001 375.8955,-175 385.8954,-178.5001 385.8955,-171.5001"/>
</g>
<!-- NavigationBarComponent -->
<g id="node2" class="node">
<title>NavigationBarComponent</title>
<polygon fill="#ffffb3" stroke="#000000" points="585.752,-122 422.248,-122 422.248,-86 585.752,-86 585.752,-122"/>
<text text-anchor="middle" x="504" y="-99.8" font-family="Times,serif" font-size="14.00" fill="#000000">NavigationBarComponent</text>
</g>
<!-- NavigationBarComponent&#45;&gt;AppModule -->
<g id="edge2" class="edge">
<title>NavigationBarComponent&#45;&gt;AppModule</title>
<path fill="none" stroke="#000000" d="M504,-122.0225C504,-139.3734 504,-163 504,-163 504,-163 386.0225,-163 386.0225,-163"/>
<polygon fill="#000000" stroke="#000000" points="386.0225,-159.5001 376.0225,-163 386.0224,-166.5001 386.0225,-159.5001"/>
</g>
<!-- AppComponent  -->
<g id="node7" class="node">
<title>AppComponent </title>
<polygon fill="#80b1d3" stroke="#000000" points="388.439,-252 279.561,-252 279.561,-216 388.439,-216 388.439,-252"/>
<text text-anchor="middle" x="334" y="-229.8" font-family="Times,serif" font-size="14.00" fill="#000000">AppComponent </text>
</g>
<!-- AppModule&#45;&gt;AppComponent  -->
<g id="edge6" class="edge">
<title>AppModule&#45;&gt;AppComponent </title>
<path fill="none" stroke="#000000" stroke-dasharray="1,5" d="M334,-187.1061C334,-187.1061 334,-205.991 334,-205.991"/>
<polygon fill="#000000" stroke="#000000" points="330.5001,-205.9909 334,-215.991 337.5001,-205.991 330.5001,-205.9909"/>
</g>
<!-- AppRoutingModule -->
<g id="node4" class="node">
<title>AppRoutingModule</title>
<polygon fill="#8dd3c7" stroke="#000000" points="398.2744,-122 395.2744,-126 374.2744,-126 371.2744,-122 269.7256,-122 269.7256,-86 398.2744,-86 398.2744,-122"/>
<text text-anchor="middle" x="334" y="-99.8" font-family="Times,serif" font-size="14.00" fill="#000000">AppRoutingModule</text>
</g>
<!-- AppRoutingModule&#45;&gt;AppModule -->
<g id="edge3" class="edge">
<title>AppRoutingModule&#45;&gt;AppModule</title>
<path fill="none" stroke="#000000" d="M334,-122.1061C334,-122.1061 334,-140.991 334,-140.991"/>
<polygon fill="#000000" stroke="#000000" points="330.5001,-140.9909 334,-150.991 337.5001,-140.991 330.5001,-140.9909"/>
</g>
<!-- BossesModule -->
<g id="node5" class="node">
<title>BossesModule</title>
<polygon fill="#8dd3c7" stroke="#000000" points="251.4358,-122 248.4358,-126 227.4358,-126 224.4358,-122 152.5642,-122 152.5642,-86 251.4358,-86 251.4358,-122"/>
<text text-anchor="middle" x="202" y="-99.8" font-family="Times,serif" font-size="14.00" fill="#000000">BossesModule</text>
</g>
<!-- BossesModule&#45;&gt;AppModule -->
<g id="edge4" class="edge">
<title>BossesModule&#45;&gt;AppModule</title>
<path fill="none" stroke="#000000" d="M202,-122.0225C202,-139.3734 202,-163 202,-163 202,-163 282.2344,-163 282.2344,-163"/>
<polygon fill="#000000" stroke="#000000" points="282.2344,-166.5001 292.2344,-163 282.2343,-159.5001 282.2344,-166.5001"/>
</g>
<!-- DatabaseModule -->
<g id="node6" class="node">
<title>DatabaseModule</title>
<polygon fill="#8dd3c7" stroke="#000000" points="134.3501,-122 131.3501,-126 110.3501,-126 107.3501,-122 23.6499,-122 23.6499,-86 134.3501,-86 134.3501,-122"/>
<text text-anchor="middle" x="79" y="-99.8" font-family="Times,serif" font-size="14.00" fill="#000000">DatabaseModule</text>
</g>
<!-- DatabaseModule&#45;&gt;AppModule -->
<g id="edge5" class="edge">
<title>DatabaseModule&#45;&gt;AppModule</title>
<path fill="none" stroke="#000000" d="M79,-122.2843C79,-143.3211 79,-175 79,-175 79,-175 282.1775,-175 282.1775,-175"/>
<polygon fill="#000000" stroke="#000000" points="282.1775,-178.5001 292.1775,-175 282.1774,-171.5001 282.1775,-178.5001"/>
</g>
</g>
</svg>
