<?xml version="1.0" encoding="UTF-8" standalone="no"?>
<!DOCTYPE svg PUBLIC "-//W3C//DTD SVG 1.1//EN"
 "http://www.w3.org/Graphics/SVG/1.1/DTD/svg11.dtd">
<!-- Generated by graphviz version 2.40.1 (20161225.0304)
 -->
<!-- Title: dependencies Pages: 1 -->
<svg width="2718pt" height="436pt"
 viewBox="0.00 0.00 2718.00 436.00" xmlns="http://www.w3.org/2000/svg" xmlns:xlink="http://www.w3.org/1999/xlink">
<g id="graph0" class="graph" transform="scale(1 1) rotate(0) translate(4 432)">
<title>dependencies</title>
<polygon fill="#ffffff" stroke="transparent" points="-4,4 -4,-432 2714,-432 2714,4 -4,4"/>
<text text-anchor="start" x="1334.0091" y="-42.4" font-family="sans-serif" font-weight="bold" font-size="14.00" fill="#000000">Legend</text>
<polygon fill="#ffffb3" stroke="transparent" points="1121,-10 1121,-30 1141,-30 1141,-10 1121,-10"/>
<text text-anchor="start" x="1144.629" y="-15.4" font-family="sans-serif" font-size="14.00" fill="#000000"> &#160;Declarations</text>
<polygon fill="#8dd3c7" stroke="transparent" points="1234,-10 1234,-30 1254,-30 1254,-10 1234,-10"/>
<text text-anchor="start" x="1257.7251" y="-15.4" font-family="sans-serif" font-size="14.00" fill="#000000"> &#160;Module</text>
<polygon fill="#80b1d3" stroke="transparent" points="1320,-10 1320,-30 1340,-30 1340,-10 1320,-10"/>
<text text-anchor="start" x="1343.7812" y="-15.4" font-family="sans-serif" font-size="14.00" fill="#000000"> &#160;Bootstrap</text>
<polygon fill="#fdb462" stroke="transparent" points="1417,-10 1417,-30 1437,-30 1437,-10 1417,-10"/>
<text text-anchor="start" x="1440.6732" y="-15.4" font-family="sans-serif" font-size="14.00" fill="#000000"> &#160;Providers</text>
<polygon fill="#fb8072" stroke="transparent" points="1513,-10 1513,-30 1533,-30 1533,-10 1513,-10"/>
<text text-anchor="start" x="1536.7258" y="-15.4" font-family="sans-serif" font-size="14.00" fill="#000000"> &#160;Exports</text>
<g id="clust1" class="cluster">
<title>cluster_AppModule</title>
<polygon fill="none" stroke="#000000" stroke-dasharray="1,5" points="894,-222 894,-420 1773,-420 1773,-222 894,-222"/>
</g>
<g id="clust2" class="cluster">
<title>cluster_AppModule_declarations</title>
<polygon fill="none" stroke="#000000" points="1300,-230 1300,-282 1765,-282 1765,-230 1300,-230"/>
</g>
<g id="clust6" class="cluster">
<title>cluster_AppModule_imports</title>
<polygon fill="none" stroke="#000000" points="902,-230 902,-282 1292,-282 1292,-230 902,-230"/>
</g>
<g id="clust8" class="cluster">
<title>cluster_AppModule_bootstrap</title>
<polygon fill="none" stroke="#000000" points="1236,-360 1236,-412 1360,-412 1360,-360 1236,-360"/>
</g>
<g id="clust16" class="cluster">
<title>cluster_BossesModule</title>
<polygon fill="none" stroke="#000000" stroke-dasharray="1,5" points="1157,-146 1157,-214 2085,-214 2085,-146 1157,-146"/>
</g>
<g id="clust17" class="cluster">
<title>cluster_BossesModule_declarations</title>
<polygon fill="none" stroke="#000000" points="1575,-154 1575,-206 2077,-206 2077,-154 1575,-154"/>
</g>
<g id="clust21" class="cluster">
<title>cluster_BossesModule_imports</title>
<polygon fill="none" stroke="#000000" points="1313,-154 1313,-206 1567,-206 1567,-154 1313,-154"/>
</g>
<g id="clust22" class="cluster">
<title>cluster_BossesModule_exports</title>
<polygon fill="none" stroke="#000000" points="1165,-154 1165,-206 1305,-206 1305,-154 1165,-154"/>
</g>
<g id="clust25" class="cluster">
<title>cluster_DatabaseModule</title>
<polygon fill="none" stroke="#000000" stroke-dasharray="1,5" points="507,-146 507,-214 1149,-214 1149,-146 507,-146"/>
</g>
<g id="clust26" class="cluster">
<title>cluster_DatabaseModule_declarations</title>
<polygon fill="none" stroke="#000000" points="673,-154 673,-206 1141,-206 1141,-154 673,-154"/>
</g>
<g id="clust31" class="cluster">
<title>cluster_DatabaseModule_exports</title>
<polygon fill="none" stroke="#000000" points="515,-154 515,-206 665,-206 665,-154 515,-154"/>
</g>
<g id="clust34" class="cluster">
<title>cluster_DisplayBuildModule</title>
<polygon fill="none" stroke="#000000" stroke-dasharray="1,5" points="1781,-222 1781,-290 2153,-290 2153,-222 1781,-222"/>
</g>
<g id="clust35" class="cluster">
<title>cluster_DisplayBuildModule_declarations</title>
<polygon fill="none" stroke="#000000" points="1973,-230 1973,-282 2145,-282 2145,-230 1973,-230"/>
</g>
<g id="clust38" class="cluster">
<title>cluster_DisplayBuildModule_exports</title>
<polygon fill="none" stroke="#000000" points="1789,-230 1789,-282 1965,-282 1965,-230 1789,-230"/>
</g>
<g id="clust41" class="cluster">
<title>cluster_StratModule</title>
<polygon fill="none" stroke="#000000" stroke-dasharray="1,5" points="8,-70 8,-138 2702,-138 2702,-70 8,-70"/>
</g>
<g id="clust42" class="cluster">
<title>cluster_StratModule_declarations</title>
<polygon fill="none" stroke="#000000" points="152,-78 152,-130 2694,-130 2694,-78 152,-78"/>
</g>
<g id="clust61" class="cluster">
<title>cluster_StratModule_exports</title>
<polygon fill="none" stroke="#000000" points="16,-78 16,-130 144,-130 144,-78 16,-78"/>
</g>
<!-- AppComponent -->
<g id="node1" class="node">
<title>AppComponent</title>
<polygon fill="#ffffb3" stroke="#000000" points="1413.9399,-274 1308.0601,-274 1308.0601,-238 1413.9399,-238 1413.9399,-274"/>
<text text-anchor="middle" x="1361" y="-251.8" font-family="Times,serif" font-size="14.00" fill="#000000">AppComponent</text>
</g>
<!-- AppModule -->
<g id="node4" class="node">
<title>AppModule</title>
<polygon fill="#8dd3c7" stroke="#000000" points="1339.6571,-339 1336.6571,-343 1315.6571,-343 1312.6571,-339 1256.3429,-339 1256.3429,-303 1339.6571,-303 1339.6571,-339"/>
<text text-anchor="middle" x="1298" y="-316.8" font-family="Times,serif" font-size="14.00" fill="#000000">AppModule</text>
</g>
<!-- AppComponent&#45;&gt;AppModule -->
<g id="edge1" class="edge">
<title>AppComponent&#45;&gt;AppModule</title>
<path fill="none" stroke="#000000" d="M1324.0543,-274.1061C1324.0543,-274.1061 1324.0543,-292.991 1324.0543,-292.991"/>
<polygon fill="#000000" stroke="#000000" points="1320.5544,-292.9909 1324.0543,-302.991 1327.5544,-292.991 1320.5544,-292.9909"/>
</g>
<!-- NavigationBarComponent -->
<g id="node2" class="node">
<title>NavigationBarComponent</title>
<polygon fill="#ffffb3" stroke="#000000" points="1756.752,-274 1593.248,-274 1593.248,-238 1756.752,-238 1756.752,-274"/>
<text text-anchor="middle" x="1675" y="-251.8" font-family="Times,serif" font-size="14.00" fill="#000000">NavigationBarComponent</text>
</g>
<!-- NavigationBarComponent&#45;&gt;AppModule -->
<g id="edge2" class="edge">
<title>NavigationBarComponent&#45;&gt;AppModule</title>
<path fill="none" stroke="#000000" d="M1675,-274.2843C1675,-295.3211 1675,-327 1675,-327 1675,-327 1349.786,-327 1349.786,-327"/>
<polygon fill="#000000" stroke="#000000" points="1349.7861,-323.5001 1339.786,-327 1349.786,-330.5001 1349.7861,-323.5001"/>
</g>
<!-- LogsDetailComponent -->
<g id="node3" class="node">
<title>LogsDetailComponent</title>
<polygon fill="#ffffb3" stroke="#000000" points="1574.5379,-274 1431.4621,-274 1431.4621,-238 1574.5379,-238 1574.5379,-274"/>
<text text-anchor="middle" x="1503" y="-251.8" font-family="Times,serif" font-size="14.00" fill="#000000">LogsDetailComponent</text>
</g>
<!-- LogsDetailComponent&#45;&gt;AppModule -->
<g id="edge3" class="edge">
<title>LogsDetailComponent&#45;&gt;AppModule</title>
<path fill="none" stroke="#000000" d="M1503,-274.0225C1503,-291.3734 1503,-315 1503,-315 1503,-315 1349.9795,-315 1349.9795,-315"/>
<polygon fill="#000000" stroke="#000000" points="1349.9795,-311.5001 1339.9795,-315 1349.9795,-318.5001 1349.9795,-311.5001"/>
</g>
<!-- AppComponent  -->
<g id="node8" class="node">
<title>AppComponent </title>
<polygon fill="#80b1d3" stroke="#000000" points="1352.439,-404 1243.561,-404 1243.561,-368 1352.439,-368 1352.439,-404"/>
<text text-anchor="middle" x="1298" y="-381.8" font-family="Times,serif" font-size="14.00" fill="#000000">AppComponent </text>
</g>
<!-- AppModule&#45;&gt;AppComponent  -->
<g id="edge7" class="edge">
<title>AppModule&#45;&gt;AppComponent </title>
<path fill="none" stroke="#000000" stroke-dasharray="1,5" d="M1298,-339.1061C1298,-339.1061 1298,-357.991 1298,-357.991"/>
<polygon fill="#000000" stroke="#000000" points="1294.5001,-357.9909 1298,-367.991 1301.5001,-357.991 1294.5001,-357.9909"/>
</g>
<!-- AppRoutingModule -->
<g id="node5" class="node">
<title>AppRoutingModule</title>
<polygon fill="#8dd3c7" stroke="#000000" points="1038.2744,-274 1035.2744,-278 1014.2744,-278 1011.2744,-274 909.7256,-274 909.7256,-238 1038.2744,-238 1038.2744,-274"/>
<text text-anchor="middle" x="974" y="-251.8" font-family="Times,serif" font-size="14.00" fill="#000000">AppRoutingModule</text>
</g>
<!-- AppRoutingModule&#45;&gt;AppModule -->
<g id="edge4" class="edge">
<title>AppRoutingModule&#45;&gt;AppModule</title>
<path fill="none" stroke="#000000" d="M974,-274.2843C974,-295.3211 974,-327 974,-327 974,-327 1246.306,-327 1246.306,-327"/>
<polygon fill="#000000" stroke="#000000" points="1246.306,-330.5001 1256.306,-327 1246.3059,-323.5001 1246.306,-330.5001"/>
</g>
<!-- DatabaseModule -->
<g id="node6" class="node">
<title>DatabaseModule</title>
<polygon fill="#8dd3c7" stroke="#000000" points="1167.3501,-274 1164.3501,-278 1143.3501,-278 1140.3501,-274 1056.6499,-274 1056.6499,-238 1167.3501,-238 1167.3501,-274"/>
<text text-anchor="middle" x="1112" y="-251.8" font-family="Times,serif" font-size="14.00" fill="#000000">DatabaseModule</text>
</g>
<!-- DatabaseModule&#45;&gt;AppModule -->
<g id="edge5" class="edge">
<title>DatabaseModule&#45;&gt;AppModule</title>
<path fill="none" stroke="#000000" d="M1112,-274.0225C1112,-291.3734 1112,-315 1112,-315 1112,-315 1246.258,-315 1246.258,-315"/>
<polygon fill="#000000" stroke="#000000" points="1246.258,-318.5001 1256.258,-315 1246.2579,-311.5001 1246.258,-318.5001"/>
</g>
<!-- DbBuildComponent  -->
<g id="node18" class="node">
<title>DbBuildComponent </title>
<polygon fill="#fb8072" stroke="#000000" points="656.5568,-198 523.4432,-198 523.4432,-162 656.5568,-162 656.5568,-198"/>
<text text-anchor="middle" x="590" y="-175.8" font-family="Times,serif" font-size="14.00" fill="#000000">DbBuildComponent </text>
</g>
<!-- DatabaseModule&#45;&gt;DbBuildComponent  -->
<g id="edge18" class="edge">
<title>DatabaseModule&#45;&gt;DbBuildComponent </title>
<path fill="none" stroke="#000000" stroke-dasharray="5,2" d="M1071.8907,-237.92C1071.8907,-236.1536 1071.8907,-235 1071.8907,-235 1071.8907,-235 590,-235 590,-235 590,-235 590,-208.0091 590,-208.0091"/>
<polygon fill="#000000" stroke="#000000" points="593.5001,-208.009 590,-198.0091 586.5001,-208.0091 593.5001,-208.009"/>
</g>
<!-- BossesModule -->
<g id="node7" class="node">
<title>BossesModule</title>
<polygon fill="#8dd3c7" stroke="#000000" points="1284.4358,-274 1281.4358,-278 1260.4358,-278 1257.4358,-274 1185.5642,-274 1185.5642,-238 1284.4358,-238 1284.4358,-274"/>
<text text-anchor="middle" x="1235" y="-251.8" font-family="Times,serif" font-size="14.00" fill="#000000">BossesModule</text>
</g>
<!-- BossesModule&#45;&gt;AppModule -->
<g id="edge6" class="edge">
<title>BossesModule&#45;&gt;AppModule</title>
<path fill="none" stroke="#000000" d="M1270.1946,-274.1061C1270.1946,-274.1061 1270.1946,-292.991 1270.1946,-292.991"/>
<polygon fill="#000000" stroke="#000000" points="1266.6947,-292.9909 1270.1946,-302.991 1273.6947,-292.991 1266.6947,-292.9909"/>
</g>
<!-- BossesComponent  -->
<g id="node14" class="node">
<title>BossesComponent </title>
<polygon fill="#fb8072" stroke="#000000" points="1296.7177,-198 1173.2823,-198 1173.2823,-162 1296.7177,-162 1296.7177,-198"/>
<text text-anchor="middle" x="1235" y="-175.8" font-family="Times,serif" font-size="14.00" fill="#000000">BossesComponent </text>
</g>
<!-- BossesModule&#45;&gt;BossesComponent  -->
<g id="edge13" class="edge">
<title>BossesModule&#45;&gt;BossesComponent </title>
<path fill="none" stroke="#000000" stroke-dasharray="5,2" d="M1202.1884,-237.9891C1202.1884,-237.9891 1202.1884,-208.145 1202.1884,-208.145"/>
<polygon fill="#000000" stroke="#000000" points="1205.6885,-208.145 1202.1884,-198.145 1198.6885,-208.1451 1205.6885,-208.145"/>
</g>
<!-- SpecDetailComponent -->
<g id="node9" class="node">
<title>SpecDetailComponent</title>
<polygon fill="#ffffb3" stroke="#000000" points="1931.252,-198 1788.748,-198 1788.748,-162 1931.252,-162 1931.252,-198"/>
<text text-anchor="middle" x="1860" y="-175.8" font-family="Times,serif" font-size="14.00" fill="#000000">SpecDetailComponent</text>
</g>
<!-- SpecDetailComponent&#45;&gt;BossesModule -->
<g id="edge8" class="edge">
<title>SpecDetailComponent&#45;&gt;BossesModule</title>
<path fill="none" stroke="#000000" d="M1792.9378,-198.1274C1792.9378,-208.7109 1792.9378,-220 1792.9378,-220 1792.9378,-220 1251.4058,-220 1251.4058,-220 1251.4058,-220 1251.4058,-227.5782 1251.4058,-227.5782"/>
<polygon fill="#000000" stroke="#000000" points="1247.9059,-227.5781 1251.4058,-237.5782 1254.9059,-227.5782 1247.9059,-227.5781"/>
</g>
<!-- CompositionDetailComponent -->
<g id="node10" class="node">
<title>CompositionDetailComponent</title>
<polygon fill="#ffffb3" stroke="#000000" points="1770.8836,-198 1583.1164,-198 1583.1164,-162 1770.8836,-162 1770.8836,-198"/>
<text text-anchor="middle" x="1677" y="-175.8" font-family="Times,serif" font-size="14.00" fill="#000000">CompositionDetailComponent</text>
</g>
<!-- CompositionDetailComponent&#45;&gt;BossesModule -->
<g id="edge9" class="edge">
<title>CompositionDetailComponent&#45;&gt;BossesModule</title>
<path fill="none" stroke="#000000" d="M1588.0912,-198.0664C1588.0912,-207.4587 1588.0912,-217 1588.0912,-217 1588.0912,-217 1235,-217 1235,-217 1235,-217 1235,-227.8701 1235,-227.8701"/>
<polygon fill="#000000" stroke="#000000" points="1231.5001,-227.8701 1235,-237.8701 1238.5001,-227.8701 1231.5001,-227.8701"/>
</g>
<!-- BossesComponent -->
<g id="node11" class="node">
<title>BossesComponent</title>
<polygon fill="#ffffb3" stroke="#000000" points="2069.2176,-198 1948.7824,-198 1948.7824,-162 2069.2176,-162 2069.2176,-198"/>
<text text-anchor="middle" x="2009" y="-175.8" font-family="Times,serif" font-size="14.00" fill="#000000">BossesComponent</text>
</g>
<!-- BossesComponent&#45;&gt;BossesModule -->
<g id="edge10" class="edge">
<title>BossesComponent&#45;&gt;BossesModule</title>
<path fill="none" stroke="#000000" d="M1952.82,-198.1505C1952.82,-210.2708 1952.82,-224 1952.82,-224 1952.82,-224 1267.8116,-224 1267.8116,-224 1267.8116,-224 1267.8116,-227.7566 1267.8116,-227.7566"/>
<polygon fill="#000000" stroke="#000000" points="1264.3117,-227.7566 1267.8116,-237.7566 1271.3117,-227.7566 1264.3117,-227.7566"/>
</g>
<!-- DisplayBuildModule -->
<g id="node12" class="node">
<title>DisplayBuildModule</title>
<polygon fill="#8dd3c7" stroke="#000000" points="1559.2148,-198 1556.2148,-202 1535.2148,-202 1532.2148,-198 1424.7852,-198 1424.7852,-162 1559.2148,-162 1559.2148,-198"/>
<text text-anchor="middle" x="1492" y="-175.8" font-family="Times,serif" font-size="14.00" fill="#000000">DisplayBuildModule</text>
</g>
<!-- DisplayBuildModule&#45;&gt;DatabaseModule -->
<g id="edge17" class="edge">
<title>DisplayBuildModule&#45;&gt;DatabaseModule</title>
<path fill="none" stroke="#000000" d="M1456.8066,-198.2015C1456.8066,-204.028 1456.8066,-209 1456.8066,-209 1456.8066,-209 1150.2893,-209 1150.2893,-209 1150.2893,-209 1150.2893,-227.963 1150.2893,-227.963"/>
<polygon fill="#000000" stroke="#000000" points="1146.7894,-227.963 1150.2893,-237.963 1153.7894,-227.963 1146.7894,-227.963"/>
</g>
<!-- DisplayBuildModule&#45;&gt;BossesModule -->
<g id="edge11" class="edge">
<title>DisplayBuildModule&#45;&gt;BossesModule</title>
<path fill="none" stroke="#000000" d="M1482.3818,-198.0449C1482.3818,-205.749 1482.3818,-213 1482.3818,-213 1482.3818,-213 1218.5942,-213 1218.5942,-213 1218.5942,-213 1218.5942,-227.5146 1218.5942,-227.5146"/>
<polygon fill="#000000" stroke="#000000" points="1215.0943,-227.5145 1218.5942,-237.5146 1222.0943,-227.5146 1215.0943,-227.5145"/>
</g>
<!-- DisplayBuildComponent  -->
<g id="node20" class="node">
<title>DisplayBuildComponent </title>
<polygon fill="#fb8072" stroke="#000000" points="1956.998,-274 1797.002,-274 1797.002,-238 1956.998,-238 1956.998,-274"/>
<text text-anchor="middle" x="1877" y="-251.8" font-family="Times,serif" font-size="14.00" fill="#000000">DisplayBuildComponent </text>
</g>
<!-- DisplayBuildModule&#45;&gt;DisplayBuildComponent  -->
<g id="edge20" class="edge">
<title>DisplayBuildModule&#45;&gt;DisplayBuildComponent </title>
<path fill="none" stroke="#000000" stroke-dasharray="5,2" d="M1533.5321,-198.0579C1533.5321,-202.4945 1533.5321,-206 1533.5321,-206 1533.5321,-206 1864.3137,-206 1864.3137,-206 1864.3137,-206 1864.3137,-227.9489 1864.3137,-227.9489"/>
<polygon fill="#000000" stroke="#000000" points="1860.8137,-227.9488 1864.3137,-237.9489 1867.8137,-227.9489 1860.8137,-227.9488"/>
</g>
<!-- StratModule -->
<g id="node13" class="node">
<title>StratModule</title>
<polygon fill="#8dd3c7" stroke="#000000" points="1406.9888,-198 1403.9888,-202 1382.9888,-202 1379.9888,-198 1321.0112,-198 1321.0112,-162 1406.9888,-162 1406.9888,-198"/>
<text text-anchor="middle" x="1364" y="-175.8" font-family="Times,serif" font-size="14.00" fill="#000000">StratModule</text>
</g>
<!-- StratModule&#45;&gt;BossesModule -->
<g id="edge12" class="edge">
<title>StratModule&#45;&gt;BossesModule</title>
<path fill="none" stroke="#000000" d="M1321.0007,-180C1310.6768,-180 1302.5696,-180 1302.5696,-180 1302.5696,-180 1302.5696,-256 1302.5696,-256 1302.5696,-256 1294.4622,-256 1294.4622,-256"/>
<polygon fill="#000000" stroke="#000000" points="1294.4622,-252.5001 1284.4622,-256 1294.4622,-259.5001 1294.4622,-252.5001"/>
</g>
<!-- StratComponent  -->
<g id="node38" class="node">
<title>StratComponent </title>
<polygon fill="#fb8072" stroke="#000000" points="135.7717,-122 24.2283,-122 24.2283,-86 135.7717,-86 135.7717,-122"/>
<text text-anchor="middle" x="80" y="-99.8" font-family="Times,serif" font-size="14.00" fill="#000000">StratComponent </text>
</g>
<!-- StratModule&#45;&gt;StratComponent  -->
<g id="edge38" class="edge">
<title>StratModule&#45;&gt;StratComponent </title>
<path fill="none" stroke="#000000" stroke-dasharray="5,2" d="M1324.5487,-161.8701C1324.5487,-151.6855 1324.5487,-141 1324.5487,-141 1324.5487,-141 80,-141 80,-141 80,-141 80,-132.0664 80,-132.0664"/>
<polygon fill="#000000" stroke="#000000" points="83.5001,-132.0664 80,-122.0664 76.5001,-132.0665 83.5001,-132.0664"/>
</g>
<!-- DbBuildComponent -->
<g id="node15" class="node">
<title>DbBuildComponent</title>
<polygon fill="#ffffb3" stroke="#000000" points="970.5576,-198 841.4424,-198 841.4424,-162 970.5576,-162 970.5576,-198"/>
<text text-anchor="middle" x="906" y="-175.8" font-family="Times,serif" font-size="14.00" fill="#000000">DbBuildComponent</text>
</g>
<!-- DbBuildComponent&#45;&gt;DatabaseModule -->
<g id="edge14" class="edge">
<title>DbBuildComponent&#45;&gt;DatabaseModule</title>
<path fill="none" stroke="#000000" d="M940.1957,-198.1467C940.1957,-211.7395 940.1957,-228 940.1957,-228 940.1957,-228 1102.5222,-228 1102.5222,-228 1102.5222,-228 1102.5222,-228.9793 1102.5222,-228.9793"/>
<polygon fill="#000000" stroke="#000000" points="1099.0223,-227.793 1102.5222,-237.793 1106.0223,-227.7931 1099.0223,-227.793"/>
</g>
<!-- DbDisplayComponent -->
<g id="node16" class="node">
<title>DbDisplayComponent</title>
<polygon fill="#ffffb3" stroke="#000000" points="822.986,-198 681.014,-198 681.014,-162 822.986,-162 822.986,-198"/>
<text text-anchor="middle" x="752" y="-175.8" font-family="Times,serif" font-size="14.00" fill="#000000">DbDisplayComponent</text>
</g>
<!-- DbDisplayComponent&#45;&gt;DatabaseModule -->
<g id="edge15" class="edge">
<title>DbDisplayComponent&#45;&gt;DatabaseModule</title>
<path fill="none" stroke="#000000" d="M752,-198.1243C752,-212.7832 752,-231 752,-231 752,-231 1087.2064,-231 1087.2064,-231 1087.2064,-231 1087.2064,-231.6831 1087.2064,-231.6831"/>
<polygon fill="#000000" stroke="#000000" points="1083.7066,-227.8313 1087.2064,-237.8314 1090.7066,-227.8314 1083.7066,-227.8313"/>
</g>
<!-- DbSelectorComponent -->
<g id="node17" class="node">
<title>DbSelectorComponent</title>
<polygon fill="#ffffb3" stroke="#000000" points="1133.3075,-198 988.6925,-198 988.6925,-162 1133.3075,-162 1133.3075,-198"/>
<text text-anchor="middle" x="1061" y="-175.8" font-family="Times,serif" font-size="14.00" fill="#000000">DbSelectorComponent</text>
</g>
<!-- DbSelectorComponent&#45;&gt;DatabaseModule -->
<g id="edge16" class="edge">
<title>DbSelectorComponent&#45;&gt;DatabaseModule</title>
<path fill="none" stroke="#000000" d="M1117.8379,-198.0109C1117.8379,-198.0109 1117.8379,-227.855 1117.8379,-227.855"/>
<polygon fill="#000000" stroke="#000000" points="1114.338,-227.8549 1117.8379,-237.855 1121.338,-227.855 1114.338,-227.8549"/>
</g>
<!-- DisplayBuildComponent -->
<g id="node19" class="node">
<title>DisplayBuildComponent</title>
<polygon fill="#ffffb3" stroke="#000000" points="2136.9972,-274 1981.0028,-274 1981.0028,-238 2136.9972,-238 2136.9972,-274"/>
<text text-anchor="middle" x="2059" y="-251.8" font-family="Times,serif" font-size="14.00" fill="#000000">DisplayBuildComponent</text>
</g>
<!-- DisplayBuildComponent&#45;&gt;DisplayBuildModule -->
<g id="edge19" class="edge">
<title>DisplayBuildComponent&#45;&gt;DisplayBuildModule</title>
<path fill="none" stroke="#000000" d="M2025.0551,-237.7181C2025.0551,-222.0522 2025.0551,-202 2025.0551,-202 2025.0551,-202 1507.9569,-202 1507.9569,-202 1507.9569,-202 1507.9569,-201.6168 1507.9569,-201.6168"/>
<polygon fill="#000000" stroke="#000000" points="1511.4572,-208.1678 1507.9569,-198.1679 1504.4572,-208.168 1511.4572,-208.1678"/>
</g>
<!-- StratComponent -->
<g id="node21" class="node">
<title>StratComponent</title>
<polygon fill="#ffffb3" stroke="#000000" points="2529.7716,-122 2422.2284,-122 2422.2284,-86 2529.7716,-86 2529.7716,-122"/>
<text text-anchor="middle" x="2476" y="-99.8" font-family="Times,serif" font-size="14.00" fill="#000000">StratComponent</text>
</g>
<!-- StratComponent&#45;&gt;StratModule -->
<g id="edge21" class="edge">
<title>StratComponent&#45;&gt;StratModule</title>
<path fill="none" stroke="#000000" d="M2476,-122.2819C2476,-137.9478 2476,-158 2476,-158 2476,-158 1400.4987,-158 1400.4987,-158 1400.4987,-158 1400.4987,-158.3832 1400.4987,-158.3832"/>
<polygon fill="#000000" stroke="#000000" points="1396.999,-151.832 1400.4987,-161.8321 1403.999,-151.8322 1396.999,-151.832"/>
</g>
<!-- StratVgComponent -->
<g id="node22" class="node">
<title>StratVgComponent</title>
<polygon fill="#ffffb3" stroke="#000000" points="2404.3781,-122 2279.6219,-122 2279.6219,-86 2404.3781,-86 2404.3781,-122"/>
<text text-anchor="middle" x="2342" y="-99.8" font-family="Times,serif" font-size="14.00" fill="#000000">StratVgComponent</text>
</g>
<!-- StratVgComponent&#45;&gt;StratModule -->
<g id="edge22" class="edge">
<title>StratVgComponent&#45;&gt;StratModule</title>
<path fill="none" stroke="#000000" d="M2342,-122.1243C2342,-136.7832 2342,-155 2342,-155 2342,-155 1397.2509,-155 1397.2509,-155 1397.2509,-155 1397.2509,-155.6831 1397.2509,-155.6831"/>
<polygon fill="#000000" stroke="#000000" points="1393.7511,-151.8313 1397.2509,-161.8314 1400.7511,-151.8314 1393.7511,-151.8313"/>
</g>
<!-- StratGorseComponent -->
<g id="node23" class="node">
<title>StratGorseComponent</title>
<polygon fill="#ffffb3" stroke="#000000" points="2261.6979,-122 2120.3021,-122 2120.3021,-86 2261.6979,-86 2261.6979,-122"/>
<text text-anchor="middle" x="2191" y="-99.8" font-family="Times,serif" font-size="14.00" fill="#000000">StratGorseComponent</text>
</g>
<!-- StratGorseComponent&#45;&gt;StratModule -->
<g id="edge23" class="edge">
<title>StratGorseComponent&#45;&gt;StratModule</title>
<path fill="none" stroke="#000000" d="M2128.6999,-122.2458C2128.6999,-136.1772 2128.6999,-153 2128.6999,-153 2128.6999,-153 1394.0031,-153 1394.0031,-153 1394.0031,-153 1394.0031,-153.8841 1394.0031,-153.8841"/>
<polygon fill="#000000" stroke="#000000" points="1390.5032,-151.8408 1394.0031,-161.8408 1397.5032,-151.8409 1390.5032,-151.8408"/>
</g>
<!-- StratSabComponent -->
<g id="node24" class="node">
<title>StratSabComponent</title>
<polygon fill="#ffffb3" stroke="#000000" points="2102.2688,-122 1973.7312,-122 1973.7312,-86 2102.2688,-86 2102.2688,-122"/>
<text text-anchor="middle" x="2038" y="-99.8" font-family="Times,serif" font-size="14.00" fill="#000000">StratSabComponent</text>
</g>
<!-- StratSabComponent&#45;&gt;StratModule -->
<g id="edge24" class="edge">
<title>StratSabComponent&#45;&gt;StratModule</title>
<path fill="none" stroke="#000000" d="M2021.3622,-122.037C2021.3622,-135.2913 2021.3622,-151 2021.3622,-151 2021.3622,-151 1390.7553,-151 1390.7553,-151 1390.7553,-151 1390.7553,-152.0799 1390.7553,-152.0799"/>
<polygon fill="#000000" stroke="#000000" points="1387.2554,-151.7985 1390.7553,-161.7985 1394.2554,-151.7986 1387.2554,-151.7985"/>
</g>
<!-- StratSlothComponent -->
<g id="node25" class="node">
<title>StratSlothComponent</title>
<polygon fill="#ffffb3" stroke="#000000" points="1955.8356,-122 1818.1644,-122 1818.1644,-86 1955.8356,-86 1955.8356,-122"/>
<text text-anchor="middle" x="1887" y="-99.8" font-family="Times,serif" font-size="14.00" fill="#000000">StratSlothComponent</text>
</g>
<!-- StratSlothComponent&#45;&gt;StratModule -->
<g id="edge25" class="edge">
<title>StratSlothComponent&#45;&gt;StratModule</title>
<path fill="none" stroke="#000000" d="M1874.8542,-122.1505C1874.8542,-134.2708 1874.8542,-148 1874.8542,-148 1874.8542,-148 1387.5074,-148 1387.5074,-148 1387.5074,-148 1387.5074,-151.7566 1387.5074,-151.7566"/>
<polygon fill="#000000" stroke="#000000" points="1384.0075,-151.7566 1387.5074,-161.7566 1391.0075,-151.7566 1384.0075,-151.7566"/>
</g>
<!-- StratMatComponent -->
<g id="node26" class="node">
<title>StratMatComponent</title>
<polygon fill="#ffffb3" stroke="#000000" points="1800.3216,-122 1669.6784,-122 1669.6784,-86 1800.3216,-86 1800.3216,-122"/>
<text text-anchor="middle" x="1735" y="-99.8" font-family="Times,serif" font-size="14.00" fill="#000000">StratMatComponent</text>
</g>
<!-- StratMatComponent&#45;&gt;StratModule -->
<g id="edge26" class="edge">
<title>StratMatComponent&#45;&gt;StratModule</title>
<path fill="none" stroke="#000000" d="M1720.3906,-122.0555C1720.3906,-133.439 1720.3906,-146 1720.3906,-146 1720.3906,-146 1384.2596,-146 1384.2596,-146 1384.2596,-146 1384.2596,-151.8056 1384.2596,-151.8056"/>
<polygon fill="#000000" stroke="#000000" points="1380.7597,-151.8055 1384.2596,-161.8056 1387.7597,-151.8056 1380.7597,-151.8055"/>
</g>
<!-- StratKcComponent -->
<g id="node27" class="node">
<title>StratKcComponent</title>
<polygon fill="#ffffb3" stroke="#000000" points="1652.0926,-122 1527.9074,-122 1527.9074,-86 1652.0926,-86 1652.0926,-122"/>
<text text-anchor="middle" x="1590" y="-99.8" font-family="Times,serif" font-size="14.00" fill="#000000">StratKcComponent</text>
</g>
<!-- StratKcComponent&#45;&gt;StratModule -->
<g id="edge27" class="edge">
<title>StratKcComponent&#45;&gt;StratModule</title>
<path fill="none" stroke="#000000" d="M1543.5305,-122.1274C1543.5305,-132.7109 1543.5305,-144 1543.5305,-144 1543.5305,-144 1381.0118,-144 1381.0118,-144 1381.0118,-144 1381.0118,-151.5782 1381.0118,-151.5782"/>
<polygon fill="#000000" stroke="#000000" points="1377.5119,-151.5781 1381.0118,-161.5782 1384.5119,-151.5782 1377.5119,-151.5781"/>
</g>
<!-- StratXeraComponent -->
<g id="node28" class="node">
<title>StratXeraComponent</title>
<polygon fill="#ffffb3" stroke="#000000" points="1509.4678,-122 1374.5322,-122 1374.5322,-86 1509.4678,-86 1509.4678,-122"/>
<text text-anchor="middle" x="1442" y="-99.8" font-family="Times,serif" font-size="14.00" fill="#000000">StratXeraComponent</text>
</g>
<!-- StratXeraComponent&#45;&gt;StratModule -->
<g id="edge28" class="edge">
<title>StratXeraComponent&#45;&gt;StratModule</title>
<path fill="none" stroke="#000000" d="M1377.7639,-122.0109C1377.7639,-122.0109 1377.7639,-151.855 1377.7639,-151.855"/>
<polygon fill="#000000" stroke="#000000" points="1374.264,-151.8549 1377.7639,-161.855 1381.264,-151.855 1374.264,-151.8549"/>
</g>
<!-- StratCairnComponent -->
<g id="node29" class="node">
<title>StratCairnComponent</title>
<polygon fill="#ffffb3" stroke="#000000" points="1356.3739,-122 1217.6261,-122 1217.6261,-86 1356.3739,-86 1356.3739,-122"/>
<text text-anchor="middle" x="1287" y="-99.8" font-family="Times,serif" font-size="14.00" fill="#000000">StratCairnComponent</text>
</g>
<!-- StratCairnComponent&#45;&gt;StratModule -->
<g id="edge29" class="edge">
<title>StratCairnComponent&#45;&gt;StratModule</title>
<path fill="none" stroke="#000000" d="M1352.8938,-122.0109C1352.8938,-122.0109 1352.8938,-151.855 1352.8938,-151.855"/>
<polygon fill="#000000" stroke="#000000" points="1349.3939,-151.8549 1352.8938,-161.855 1356.3939,-151.855 1349.3939,-151.8549"/>
</g>
<!-- StratMoComponent -->
<g id="node30" class="node">
<title>StratMoComponent</title>
<polygon fill="#ffffb3" stroke="#000000" points="1199.7162,-122 1072.2838,-122 1072.2838,-86 1199.7162,-86 1199.7162,-122"/>
<text text-anchor="middle" x="1136" y="-99.8" font-family="Times,serif" font-size="14.00" fill="#000000">StratMoComponent</text>
</g>
<!-- StratMoComponent&#45;&gt;StratModule -->
<g id="edge30" class="edge">
<title>StratMoComponent&#45;&gt;StratModule</title>
<path fill="none" stroke="#000000" d="M1186.3747,-122.08C1186.3747,-123.8464 1186.3747,-125 1186.3747,-125 1186.3747,-125 1349.3506,-125 1349.3506,-125 1349.3506,-125 1349.3506,-151.9909 1349.3506,-151.9909"/>
<polygon fill="#000000" stroke="#000000" points="1345.8507,-151.9909 1349.3506,-161.9909 1352.8507,-151.991 1345.8507,-151.9909"/>
</g>
<!-- StratSamComponent -->
<g id="node31" class="node">
<title>StratSamComponent</title>
<polygon fill="#ffffb3" stroke="#000000" points="1054.1596,-122 921.8404,-122 921.8404,-86 1054.1596,-86 1054.1596,-122"/>
<text text-anchor="middle" x="988" y="-99.8" font-family="Times,serif" font-size="14.00" fill="#000000">StratSamComponent</text>
</g>
<!-- StratSamComponent&#45;&gt;StratModule -->
<g id="edge31" class="edge">
<title>StratSamComponent&#45;&gt;StratModule</title>
<path fill="none" stroke="#000000" d="M1021.588,-122.1223C1021.588,-124.9729 1021.588,-127 1021.588,-127 1021.588,-127 1345.8075,-127 1345.8075,-127 1345.8075,-127 1345.8075,-151.7604 1345.8075,-151.7604"/>
<polygon fill="#000000" stroke="#000000" points="1342.3076,-151.7604 1345.8075,-161.7604 1349.3076,-151.7604 1342.3076,-151.7604"/>
</g>
<!-- StratDeiComponent -->
<g id="node32" class="node">
<title>StratDeiComponent</title>
<polygon fill="#ffffb3" stroke="#000000" points="903.9832,-122 776.0168,-122 776.0168,-86 903.9832,-86 903.9832,-122"/>
<text text-anchor="middle" x="840" y="-99.8" font-family="Times,serif" font-size="14.00" fill="#000000">StratDeiComponent</text>
</g>
<!-- StratDeiComponent&#45;&gt;StratModule -->
<g id="edge32" class="edge">
<title>StratDeiComponent&#45;&gt;StratModule</title>
<path fill="none" stroke="#000000" d="M872.6066,-122.0579C872.6066,-126.4945 872.6066,-130 872.6066,-130 872.6066,-130 1342.2644,-130 1342.2644,-130 1342.2644,-130 1342.2644,-151.9489 1342.2644,-151.9489"/>
<polygon fill="#000000" stroke="#000000" points="1338.7645,-151.9488 1342.2644,-161.9489 1345.7645,-151.9489 1338.7645,-151.9488"/>
</g>
<!-- StratSsComponent -->
<g id="node33" class="node">
<title>StratSsComponent</title>
<polygon fill="#ffffb3" stroke="#000000" points="758.4986,-122 637.5014,-122 637.5014,-86 758.4986,-86 758.4986,-122"/>
<text text-anchor="middle" x="698" y="-99.8" font-family="Times,serif" font-size="14.00" fill="#000000">StratSsComponent</text>
</g>
<!-- StratSsComponent&#45;&gt;StratModule -->
<g id="edge33" class="edge">
<title>StratSsComponent&#45;&gt;StratModule</title>
<path fill="none" stroke="#000000" d="M719.7532,-122.207C719.7532,-127.5549 719.7532,-132 719.7532,-132 719.7532,-132 1338.7213,-132 1338.7213,-132 1338.7213,-132 1338.7213,-151.8533 1338.7213,-151.8533"/>
<polygon fill="#000000" stroke="#000000" points="1335.2213,-151.8532 1338.7213,-161.8533 1342.2213,-151.8533 1335.2213,-151.8532"/>
</g>
<!-- StratDhuumComponent -->
<g id="node34" class="node">
<title>StratDhuumComponent</title>
<polygon fill="#ffffb3" stroke="#000000" points="619.7688,-122 470.2312,-122 470.2312,-86 619.7688,-86 619.7688,-122"/>
<text text-anchor="middle" x="545" y="-99.8" font-family="Times,serif" font-size="14.00" fill="#000000">StratDhuumComponent</text>
</g>
<!-- StratDhuumComponent&#45;&gt;StratModule -->
<g id="edge34" class="edge">
<title>StratDhuumComponent&#45;&gt;StratModule</title>
<path fill="none" stroke="#000000" d="M571.678,-122.1432C571.678,-128.4611 571.678,-134 571.678,-134 571.678,-134 1335.1781,-134 1335.1781,-134 1335.1781,-134 1335.1781,-151.8196 1335.1781,-151.8196"/>
<polygon fill="#000000" stroke="#000000" points="1331.6782,-151.8195 1335.1781,-161.8196 1338.6782,-151.8196 1331.6782,-151.8195"/>
</g>
<!-- StratRiverComponent -->
<g id="node35" class="node">
<title>StratRiverComponent</title>
<polygon fill="#ffffb3" stroke="#000000" points="452.3739,-122 313.6261,-122 313.6261,-86 452.3739,-86 452.3739,-122"/>
<text text-anchor="middle" x="383" y="-99.8" font-family="Times,serif" font-size="14.00" fill="#000000">StratRiverComponent</text>
</g>
<!-- StratRiverComponent&#45;&gt;StratModule -->
<g id="edge35" class="edge">
<title>StratRiverComponent&#45;&gt;StratModule</title>
<path fill="none" stroke="#000000" d="M383,-122.0449C383,-129.749 383,-137 383,-137 383,-137 1331.635,-137 1331.635,-137 1331.635,-137 1331.635,-151.5146 1331.635,-151.5146"/>
<polygon fill="#000000" stroke="#000000" points="1328.1351,-151.5145 1331.635,-161.5146 1335.1351,-151.5146 1328.1351,-151.5145"/>
</g>
<!-- StratKingComponent -->
<g id="node36" class="node">
<title>StratKingComponent</title>
<polygon fill="#ffffb3" stroke="#000000" points="295.7688,-122 160.2312,-122 160.2312,-86 295.7688,-86 295.7688,-122"/>
<text text-anchor="middle" x="228" y="-99.8" font-family="Times,serif" font-size="14.00" fill="#000000">StratKingComponent</text>
</g>
<!-- StratKingComponent&#45;&gt;StratModule -->
<g id="edge36" class="edge">
<title>StratKingComponent&#45;&gt;StratModule</title>
<path fill="none" stroke="#000000" d="M228,-122.32C228,-130.7883 228,-139 228,-139 228,-139 1328.0919,-139 1328.0919,-139 1328.0919,-139 1328.0919,-151.8975 1328.0919,-151.8975"/>
<polygon fill="#000000" stroke="#000000" points="1324.592,-151.8974 1328.0919,-161.8975 1331.592,-151.8975 1324.592,-151.8974"/>
</g>
<!-- StratEaterComponent -->
<g id="node37" class="node">
<title>StratEaterComponent</title>
<polygon fill="#ffffb3" stroke="#000000" points="2685.8047,-122 2548.1953,-122 2548.1953,-86 2685.8047,-86 2685.8047,-122"/>
<text text-anchor="middle" x="2617" y="-99.8" font-family="Times,serif" font-size="14.00" fill="#000000">StratEaterComponent</text>
</g>
<!-- StratEaterComponent&#45;&gt;StratModule -->
<g id="edge37" class="edge">
<title>StratEaterComponent&#45;&gt;StratModule</title>
<path fill="none" stroke="#000000" d="M2617,-122.027C2617,-138.3976 2617,-160 2617,-160 2617,-160 1403.7466,-160 1403.7466,-160 1403.7466,-160 1403.7466,-160.1846 1403.7466,-160.1846"/>
<polygon fill="#000000" stroke="#000000" points="1400.2472,-151.8455 1403.7466,-161.8457 1407.2472,-151.8459 1400.2472,-151.8455"/>
</g>
</g>
</svg>
