<?xml version="1.0" encoding="UTF-8" standalone="no"?>
<!DOCTYPE svg PUBLIC "-//W3C//DTD SVG 1.1//EN"
 "http://www.w3.org/Graphics/SVG/1.1/DTD/svg11.dtd">
<!-- Generated by graphviz version 2.40.1 (20161225.0304)
 -->
<!-- Title: dependencies Pages: 1 -->
<svg width="2719pt" height="436pt"
 viewBox="0.00 0.00 2719.00 436.00" xmlns="http://www.w3.org/2000/svg" xmlns:xlink="http://www.w3.org/1999/xlink">
<g id="graph0" class="graph" transform="scale(1 1) rotate(0) translate(4 432)">
<title>dependencies</title>
<polygon fill="#ffffff" stroke="transparent" points="-4,4 -4,-432 2715,-432 2715,4 -4,4"/>
<text text-anchor="start" x="1334.5091" y="-42.4" font-family="sans-serif" font-weight="bold" font-size="14.00" fill="#000000">Legend</text>
<polygon fill="#ffffb3" stroke="transparent" points="1121.5,-10 1121.5,-30 1141.5,-30 1141.5,-10 1121.5,-10"/>
<text text-anchor="start" x="1145.129" y="-15.4" font-family="sans-serif" font-size="14.00" fill="#000000"> &#160;Declarations</text>
<polygon fill="#8dd3c7" stroke="transparent" points="1234.5,-10 1234.5,-30 1254.5,-30 1254.5,-10 1234.5,-10"/>
<text text-anchor="start" x="1258.2251" y="-15.4" font-family="sans-serif" font-size="14.00" fill="#000000"> &#160;Module</text>
<polygon fill="#80b1d3" stroke="transparent" points="1320.5,-10 1320.5,-30 1340.5,-30 1340.5,-10 1320.5,-10"/>
<text text-anchor="start" x="1344.2812" y="-15.4" font-family="sans-serif" font-size="14.00" fill="#000000"> &#160;Bootstrap</text>
<polygon fill="#fdb462" stroke="transparent" points="1417.5,-10 1417.5,-30 1437.5,-30 1437.5,-10 1417.5,-10"/>
<text text-anchor="start" x="1441.1732" y="-15.4" font-family="sans-serif" font-size="14.00" fill="#000000"> &#160;Providers</text>
<polygon fill="#fb8072" stroke="transparent" points="1513.5,-10 1513.5,-30 1533.5,-30 1533.5,-10 1513.5,-10"/>
<text text-anchor="start" x="1537.2258" y="-15.4" font-family="sans-serif" font-size="14.00" fill="#000000"> &#160;Exports</text>
<g id="clust1" class="cluster">
<title>cluster_AppModule</title>
<polygon fill="none" stroke="#000000" stroke-dasharray="1,5" points="938,-222 938,-420 1656,-420 1656,-222 938,-222"/>
</g>
<g id="clust2" class="cluster">
<title>cluster_AppModule_declarations</title>
<polygon fill="none" stroke="#000000" points="1344,-230 1344,-282 1648,-282 1648,-230 1344,-230"/>
</g>
<g id="clust5" class="cluster">
<title>cluster_AppModule_imports</title>
<polygon fill="none" stroke="#000000" points="946,-230 946,-282 1336,-282 1336,-230 946,-230"/>
</g>
<g id="clust7" class="cluster">
<title>cluster_AppModule_bootstrap</title>
<polygon fill="none" stroke="#000000" points="1217,-360 1217,-412 1341,-412 1341,-360 1217,-360"/>
</g>
<g id="clust15" class="cluster">
<title>cluster_BossesModule</title>
<polygon fill="none" stroke="#000000" stroke-dasharray="1,5" points="1137,-146 1137,-214 2227,-214 2227,-146 1137,-146"/>
</g>
<g id="clust16" class="cluster">
<title>cluster_BossesModule_declarations</title>
<polygon fill="none" stroke="#000000" points="1555,-154 1555,-206 2219,-206 2219,-154 1555,-154"/>
</g>
<g id="clust21" class="cluster">
<title>cluster_BossesModule_imports</title>
<polygon fill="none" stroke="#000000" points="1293,-154 1293,-206 1547,-206 1547,-154 1293,-154"/>
</g>
<g id="clust22" class="cluster">
<title>cluster_BossesModule_exports</title>
<polygon fill="none" stroke="#000000" points="1145,-154 1145,-206 1285,-206 1285,-154 1145,-154"/>
</g>
<g id="clust25" class="cluster">
<title>cluster_DatabaseModule</title>
<polygon fill="none" stroke="#000000" stroke-dasharray="1,5" points="487,-146 487,-214 1129,-214 1129,-146 487,-146"/>
</g>
<g id="clust26" class="cluster">
<title>cluster_DatabaseModule_declarations</title>
<polygon fill="none" stroke="#000000" points="653,-154 653,-206 1121,-206 1121,-154 653,-154"/>
</g>
<g id="clust31" class="cluster">
<title>cluster_DatabaseModule_exports</title>
<polygon fill="none" stroke="#000000" points="495,-154 495,-206 645,-206 645,-154 495,-154"/>
</g>
<g id="clust34" class="cluster">
<title>cluster_DisplayBuildModule</title>
<polygon fill="none" stroke="#000000" stroke-dasharray="1,5" points="1664,-222 1664,-290 2036,-290 2036,-222 1664,-222"/>
</g>
<g id="clust35" class="cluster">
<title>cluster_DisplayBuildModule_declarations</title>
<polygon fill="none" stroke="#000000" points="1856,-230 1856,-282 2028,-282 2028,-230 1856,-230"/>
</g>
<g id="clust38" class="cluster">
<title>cluster_DisplayBuildModule_exports</title>
<polygon fill="none" stroke="#000000" points="1672,-230 1672,-282 1848,-282 1848,-230 1672,-230"/>
</g>
<g id="clust41" class="cluster">
<title>cluster_StratModule</title>
<polygon fill="none" stroke="#000000" stroke-dasharray="1,5" points="8,-70 8,-138 2703,-138 2703,-70 8,-70"/>
</g>
<g id="clust42" class="cluster">
<title>cluster_StratModule_declarations</title>
<polygon fill="none" stroke="#000000" points="152,-78 152,-130 2695,-130 2695,-78 152,-78"/>
</g>
<g id="clust61" class="cluster">
<title>cluster_StratModule_exports</title>
<polygon fill="none" stroke="#000000" points="16,-78 16,-130 144,-130 144,-78 16,-78"/>
</g>
<!-- AppComponent -->
<g id="node1" class="node">
<title>AppComponent</title>
<polygon fill="#ffffb3" stroke="#000000" points="1639.9399,-274 1534.0601,-274 1534.0601,-238 1639.9399,-238 1639.9399,-274"/>
<text text-anchor="middle" x="1587" y="-251.8" font-family="Times,serif" font-size="14.00" fill="#000000">AppComponent</text>
</g>
<!-- AppModule -->
<g id="node3" class="node">
<title>AppModule</title>
<polygon fill="#8dd3c7" stroke="#000000" points="1320.6571,-339 1317.6571,-343 1296.6571,-343 1293.6571,-339 1237.3429,-339 1237.3429,-303 1320.6571,-303 1320.6571,-339"/>
<text text-anchor="middle" x="1279" y="-316.8" font-family="Times,serif" font-size="14.00" fill="#000000">AppModule</text>
</g>
<!-- AppComponent&#45;&gt;AppModule -->
<g id="edge1" class="edge">
<title>AppComponent&#45;&gt;AppModule</title>
<path fill="none" stroke="#000000" d="M1587,-274.2843C1587,-295.3211 1587,-327 1587,-327 1587,-327 1330.8588,-327 1330.8588,-327"/>
<polygon fill="#000000" stroke="#000000" points="1330.8588,-323.5001 1320.8588,-327 1330.8588,-330.5001 1330.8588,-323.5001"/>
</g>
<!-- NavigationBarComponent -->
<g id="node2" class="node">
<title>NavigationBarComponent</title>
<polygon fill="#ffffb3" stroke="#000000" points="1515.752,-274 1352.248,-274 1352.248,-238 1515.752,-238 1515.752,-274"/>
<text text-anchor="middle" x="1434" y="-251.8" font-family="Times,serif" font-size="14.00" fill="#000000">NavigationBarComponent</text>
</g>
<!-- NavigationBarComponent&#45;&gt;AppModule -->
<g id="edge2" class="edge">
<title>NavigationBarComponent&#45;&gt;AppModule</title>
<path fill="none" stroke="#000000" d="M1434,-274.0225C1434,-291.3734 1434,-315 1434,-315 1434,-315 1330.9452,-315 1330.9452,-315"/>
<polygon fill="#000000" stroke="#000000" points="1330.9453,-311.5001 1320.9452,-315 1330.9452,-318.5001 1330.9453,-311.5001"/>
</g>
<!-- AppComponent  -->
<g id="node7" class="node">
<title>AppComponent </title>
<polygon fill="#80b1d3" stroke="#000000" points="1333.439,-404 1224.561,-404 1224.561,-368 1333.439,-368 1333.439,-404"/>
<text text-anchor="middle" x="1279" y="-381.8" font-family="Times,serif" font-size="14.00" fill="#000000">AppComponent </text>
</g>
<!-- AppModule&#45;&gt;AppComponent  -->
<g id="edge6" class="edge">
<title>AppModule&#45;&gt;AppComponent </title>
<path fill="none" stroke="#000000" stroke-dasharray="1,5" d="M1279,-339.1061C1279,-339.1061 1279,-357.991 1279,-357.991"/>
<polygon fill="#000000" stroke="#000000" points="1275.5001,-357.9909 1279,-367.991 1282.5001,-357.991 1275.5001,-357.9909"/>
</g>
<!-- AppRoutingModule -->
<g id="node4" class="node">
<title>AppRoutingModule</title>
<polygon fill="#8dd3c7" stroke="#000000" points="1082.2744,-274 1079.2744,-278 1058.2744,-278 1055.2744,-274 953.7256,-274 953.7256,-238 1082.2744,-238 1082.2744,-274"/>
<text text-anchor="middle" x="1018" y="-251.8" font-family="Times,serif" font-size="14.00" fill="#000000">AppRoutingModule</text>
</g>
<!-- AppRoutingModule&#45;&gt;AppModule -->
<g id="edge3" class="edge">
<title>AppRoutingModule&#45;&gt;AppModule</title>
<path fill="none" stroke="#000000" d="M1018,-274.2843C1018,-295.3211 1018,-327 1018,-327 1018,-327 1227.0658,-327 1227.0658,-327"/>
<polygon fill="#000000" stroke="#000000" points="1227.0659,-330.5001 1237.0658,-327 1227.0658,-323.5001 1227.0659,-330.5001"/>
</g>
<!-- BossesModule -->
<g id="node5" class="node">
<title>BossesModule</title>
<polygon fill="#8dd3c7" stroke="#000000" points="1328.4358,-274 1325.4358,-278 1304.4358,-278 1301.4358,-274 1229.5642,-274 1229.5642,-238 1328.4358,-238 1328.4358,-274"/>
<text text-anchor="middle" x="1279" y="-251.8" font-family="Times,serif" font-size="14.00" fill="#000000">BossesModule</text>
</g>
<!-- BossesModule&#45;&gt;AppModule -->
<g id="edge4" class="edge">
<title>BossesModule&#45;&gt;AppModule</title>
<path fill="none" stroke="#000000" d="M1279,-274.1061C1279,-274.1061 1279,-292.991 1279,-292.991"/>
<polygon fill="#000000" stroke="#000000" points="1275.5001,-292.9909 1279,-302.991 1282.5001,-292.991 1275.5001,-292.9909"/>
</g>
<!-- BossesComponent  -->
<g id="node14" class="node">
<title>BossesComponent </title>
<polygon fill="#fb8072" stroke="#000000" points="1276.7177,-198 1153.2823,-198 1153.2823,-162 1276.7177,-162 1276.7177,-198"/>
<text text-anchor="middle" x="1215" y="-175.8" font-family="Times,serif" font-size="14.00" fill="#000000">BossesComponent </text>
</g>
<!-- BossesModule&#45;&gt;BossesComponent  -->
<g id="edge13" class="edge">
<title>BossesModule&#45;&gt;BossesComponent </title>
<path fill="none" stroke="#000000" stroke-dasharray="5,2" d="M1253.3207,-237.9891C1253.3207,-237.9891 1253.3207,-208.145 1253.3207,-208.145"/>
<polygon fill="#000000" stroke="#000000" points="1256.8207,-208.145 1253.3207,-198.145 1249.8207,-208.1451 1256.8207,-208.145"/>
</g>
<!-- DatabaseModule -->
<g id="node6" class="node">
<title>DatabaseModule</title>
<polygon fill="#8dd3c7" stroke="#000000" points="1211.3501,-274 1208.3501,-278 1187.3501,-278 1184.3501,-274 1100.6499,-274 1100.6499,-238 1211.3501,-238 1211.3501,-274"/>
<text text-anchor="middle" x="1156" y="-251.8" font-family="Times,serif" font-size="14.00" fill="#000000">DatabaseModule</text>
</g>
<!-- DatabaseModule&#45;&gt;AppModule -->
<g id="edge5" class="edge">
<title>DatabaseModule&#45;&gt;AppModule</title>
<path fill="none" stroke="#000000" d="M1156,-274.0225C1156,-291.3734 1156,-315 1156,-315 1156,-315 1227.0144,-315 1227.0144,-315"/>
<polygon fill="#000000" stroke="#000000" points="1227.0144,-318.5001 1237.0144,-315 1227.0144,-311.5001 1227.0144,-318.5001"/>
</g>
<!-- DbBuildComponent  -->
<g id="node18" class="node">
<title>DbBuildComponent </title>
<polygon fill="#fb8072" stroke="#000000" points="636.5568,-198 503.4432,-198 503.4432,-162 636.5568,-162 636.5568,-198"/>
<text text-anchor="middle" x="570" y="-175.8" font-family="Times,serif" font-size="14.00" fill="#000000">DbBuildComponent </text>
</g>
<!-- DatabaseModule&#45;&gt;DbBuildComponent  -->
<g id="edge18" class="edge">
<title>DatabaseModule&#45;&gt;DbBuildComponent </title>
<path fill="none" stroke="#000000" stroke-dasharray="5,2" d="M1103.0907,-237.8903C1103.0907,-228.103 1103.0907,-218 1103.0907,-218 1103.0907,-218 570,-218 570,-218 570,-218 570,-208.1097 570,-208.1097"/>
<polygon fill="#000000" stroke="#000000" points="573.5001,-208.1096 570,-198.1097 566.5001,-208.1097 573.5001,-208.1096"/>
</g>
<!-- BossesComponent -->
<g id="node8" class="node">
<title>BossesComponent</title>
<polygon fill="#ffffb3" stroke="#000000" points="1889.2176,-198 1768.7824,-198 1768.7824,-162 1889.2176,-162 1889.2176,-198"/>
<text text-anchor="middle" x="1829" y="-175.8" font-family="Times,serif" font-size="14.00" fill="#000000">BossesComponent</text>
</g>
<!-- BossesComponent&#45;&gt;BossesModule -->
<g id="edge7" class="edge">
<title>BossesComponent&#45;&gt;BossesModule</title>
<path fill="none" stroke="#000000" d="M1804.32,-198.1467C1804.32,-211.7395 1804.32,-228 1804.32,-228 1804.32,-228 1316.5552,-228 1316.5552,-228 1316.5552,-228 1316.5552,-228.9793 1316.5552,-228.9793"/>
<polygon fill="#000000" stroke="#000000" points="1313.0553,-227.793 1316.5552,-237.793 1320.0553,-227.7931 1313.0553,-227.793"/>
</g>
<!-- CompositionDetailComponent -->
<g id="node9" class="node">
<title>CompositionDetailComponent</title>
<polygon fill="#ffffb3" stroke="#000000" points="1750.8836,-198 1563.1164,-198 1563.1164,-162 1750.8836,-162 1750.8836,-198"/>
<text text-anchor="middle" x="1657" y="-175.8" font-family="Times,serif" font-size="14.00" fill="#000000">CompositionDetailComponent</text>
</g>
<!-- CompositionDetailComponent&#45;&gt;BossesModule -->
<g id="edge8" class="edge">
<title>CompositionDetailComponent&#45;&gt;BossesModule</title>
<path fill="none" stroke="#000000" d="M1601.3888,-198.0439C1601.3888,-210.5633 1601.3888,-225 1601.3888,-225 1601.3888,-225 1312.6678,-225 1312.6678,-225 1312.6678,-225 1312.6678,-227.9672 1312.6678,-227.9672"/>
<polygon fill="#000000" stroke="#000000" points="1309.1679,-227.9671 1312.6678,-237.9672 1316.1679,-227.9672 1309.1679,-227.9671"/>
</g>
<!-- LogsDetailComponent -->
<g id="node10" class="node">
<title>LogsDetailComponent</title>
<polygon fill="#ffffb3" stroke="#000000" points="2210.5379,-198 2067.4621,-198 2067.4621,-162 2210.5379,-162 2210.5379,-198"/>
<text text-anchor="middle" x="2139" y="-175.8" font-family="Times,serif" font-size="14.00" fill="#000000">LogsDetailComponent</text>
</g>
<!-- LogsDetailComponent&#45;&gt;BossesModule -->
<g id="edge9" class="edge">
<title>LogsDetailComponent&#45;&gt;BossesModule</title>
<path fill="none" stroke="#000000" d="M2139,-198.0091C2139,-214.0494 2139,-235 2139,-235 2139,-235 1324.33,-235 1324.33,-235 1324.33,-235 1324.33,-235.292 1324.33,-235.292"/>
<polygon fill="#000000" stroke="#000000" points="1320.8304,-227.9198 1324.33,-237.92 1327.8304,-227.9201 1320.8304,-227.9198"/>
</g>
<!-- SpecDetailComponent -->
<g id="node11" class="node">
<title>SpecDetailComponent</title>
<polygon fill="#ffffb3" stroke="#000000" points="2049.252,-198 1906.748,-198 1906.748,-162 2049.252,-162 2049.252,-198"/>
<text text-anchor="middle" x="1978" y="-175.8" font-family="Times,serif" font-size="14.00" fill="#000000">SpecDetailComponent</text>
</g>
<!-- SpecDetailComponent&#45;&gt;BossesModule -->
<g id="edge10" class="edge">
<title>SpecDetailComponent&#45;&gt;BossesModule</title>
<path fill="none" stroke="#000000" d="M1963.3114,-198.1871C1963.3114,-213.1824 1963.3114,-232 1963.3114,-232 1963.3114,-232 1320.4426,-232 1320.4426,-232 1320.4426,-232 1320.4426,-232.581 1320.4426,-232.581"/>
<polygon fill="#000000" stroke="#000000" points="1316.9428,-227.8097 1320.4426,-237.8097 1323.9428,-227.8098 1316.9428,-227.8097"/>
</g>
<!-- DisplayBuildModule -->
<g id="node12" class="node">
<title>DisplayBuildModule</title>
<polygon fill="#8dd3c7" stroke="#000000" points="1539.2148,-198 1536.2148,-202 1515.2148,-202 1512.2148,-198 1404.7852,-198 1404.7852,-162 1539.2148,-162 1539.2148,-198"/>
<text text-anchor="middle" x="1472" y="-175.8" font-family="Times,serif" font-size="14.00" fill="#000000">DisplayBuildModule</text>
</g>
<!-- DisplayBuildModule&#45;&gt;BossesModule -->
<g id="edge11" class="edge">
<title>DisplayBuildModule&#45;&gt;BossesModule</title>
<path fill="none" stroke="#000000" d="M1478.8815,-198.0555C1478.8815,-209.439 1478.8815,-222 1478.8815,-222 1478.8815,-222 1308.7804,-222 1308.7804,-222 1308.7804,-222 1308.7804,-227.8056 1308.7804,-227.8056"/>
<polygon fill="#000000" stroke="#000000" points="1305.2805,-227.8055 1308.7804,-237.8056 1312.2805,-227.8056 1305.2805,-227.8055"/>
</g>
<!-- DisplayBuildModule&#45;&gt;DatabaseModule -->
<g id="edge17" class="edge">
<title>DisplayBuildModule&#45;&gt;DatabaseModule</title>
<path fill="none" stroke="#000000" d="M1441.8871,-198.1686C1441.8871,-202.0459 1441.8871,-205 1441.8871,-205 1441.8871,-205 1182.2832,-205 1182.2832,-205 1182.2832,-205 1182.2832,-227.8757 1182.2832,-227.8757"/>
<polygon fill="#000000" stroke="#000000" points="1178.7832,-227.8757 1182.2832,-237.8757 1185.7832,-227.8757 1178.7832,-227.8757"/>
</g>
<!-- DisplayBuildComponent  -->
<g id="node20" class="node">
<title>DisplayBuildComponent </title>
<polygon fill="#fb8072" stroke="#000000" points="1839.998,-274 1680.002,-274 1680.002,-238 1839.998,-238 1839.998,-274"/>
<text text-anchor="middle" x="1760" y="-251.8" font-family="Times,serif" font-size="14.00" fill="#000000">DisplayBuildComponent </text>
</g>
<!-- DisplayBuildModule&#45;&gt;DisplayBuildComponent  -->
<g id="edge20" class="edge">
<title>DisplayBuildModule&#45;&gt;DisplayBuildComponent </title>
<path fill="none" stroke="#000000" stroke-dasharray="5,2" d="M1528.1456,-198.207C1528.1456,-203.5549 1528.1456,-208 1528.1456,-208 1528.1456,-208 1715.5966,-208 1715.5966,-208 1715.5966,-208 1715.5966,-227.8533 1715.5966,-227.8533"/>
<polygon fill="#000000" stroke="#000000" points="1712.0967,-227.8532 1715.5966,-237.8533 1719.0967,-227.8533 1712.0967,-227.8532"/>
</g>
<!-- StratModule -->
<g id="node13" class="node">
<title>StratModule</title>
<polygon fill="#8dd3c7" stroke="#000000" points="1386.9888,-198 1383.9888,-202 1362.9888,-202 1359.9888,-198 1301.0112,-198 1301.0112,-162 1386.9888,-162 1386.9888,-198"/>
<text text-anchor="middle" x="1344" y="-175.8" font-family="Times,serif" font-size="14.00" fill="#000000">StratModule</text>
</g>
<!-- StratModule&#45;&gt;BossesModule -->
<g id="edge12" class="edge">
<title>StratModule&#45;&gt;BossesModule</title>
<path fill="none" stroke="#000000" d="M1304.893,-198.0109C1304.893,-198.0109 1304.893,-227.855 1304.893,-227.855"/>
<polygon fill="#000000" stroke="#000000" points="1301.3931,-227.8549 1304.893,-237.855 1308.3931,-227.855 1301.3931,-227.8549"/>
</g>
<!-- StratComponent  -->
<g id="node38" class="node">
<title>StratComponent </title>
<polygon fill="#fb8072" stroke="#000000" points="135.7717,-122 24.2283,-122 24.2283,-86 135.7717,-86 135.7717,-122"/>
<text text-anchor="middle" x="80" y="-99.8" font-family="Times,serif" font-size="14.00" fill="#000000">StratComponent </text>
</g>
<!-- StratModule&#45;&gt;StratComponent  -->
<g id="edge38" class="edge">
<title>StratModule&#45;&gt;StratComponent </title>
<path fill="none" stroke="#000000" stroke-dasharray="5,2" d="M1304.6935,-161.8457C1304.6935,-160.7031 1304.6935,-160 1304.6935,-160 1304.6935,-160 80,-160 80,-160 80,-160 80,-132.027 80,-132.027"/>
<polygon fill="#000000" stroke="#000000" points="83.5001,-132.027 80,-122.027 76.5001,-132.027 83.5001,-132.027"/>
</g>
<!-- DbBuildComponent -->
<g id="node15" class="node">
<title>DbBuildComponent</title>
<polygon fill="#ffffb3" stroke="#000000" points="950.5576,-198 821.4424,-198 821.4424,-162 950.5576,-162 950.5576,-198"/>
<text text-anchor="middle" x="886" y="-175.8" font-family="Times,serif" font-size="14.00" fill="#000000">DbBuildComponent</text>
</g>
<!-- DbBuildComponent&#45;&gt;DatabaseModule -->
<g id="edge14" class="edge">
<title>DbBuildComponent&#45;&gt;DatabaseModule</title>
<path fill="none" stroke="#000000" d="M886,-198.2434C886,-205.4297 886,-212 886,-212 886,-212 1108.1222,-212 1108.1222,-212 1108.1222,-212 1108.1222,-227.8495 1108.1222,-227.8495"/>
<polygon fill="#000000" stroke="#000000" points="1104.6223,-227.8494 1108.1222,-237.8495 1111.6223,-227.8495 1104.6223,-227.8494"/>
</g>
<!-- DbDisplayComponent -->
<g id="node16" class="node">
<title>DbDisplayComponent</title>
<polygon fill="#ffffb3" stroke="#000000" points="802.986,-198 661.014,-198 661.014,-162 802.986,-162 802.986,-198"/>
<text text-anchor="middle" x="732" y="-175.8" font-family="Times,serif" font-size="14.00" fill="#000000">DbDisplayComponent</text>
</g>
<!-- DbDisplayComponent&#45;&gt;DatabaseModule -->
<g id="edge15" class="edge">
<title>DbDisplayComponent&#45;&gt;DatabaseModule</title>
<path fill="none" stroke="#000000" d="M732,-198.32C732,-206.7883 732,-215 732,-215 732,-215 1105.6064,-215 1105.6064,-215 1105.6064,-215 1105.6064,-227.8975 1105.6064,-227.8975"/>
<polygon fill="#000000" stroke="#000000" points="1102.1065,-227.8974 1105.6064,-237.8975 1109.1065,-227.8975 1102.1065,-227.8974"/>
</g>
<!-- DbSelectorComponent -->
<g id="node17" class="node">
<title>DbSelectorComponent</title>
<polygon fill="#ffffb3" stroke="#000000" points="1113.3075,-198 968.6925,-198 968.6925,-162 1113.3075,-162 1113.3075,-198"/>
<text text-anchor="middle" x="1041" y="-175.8" font-family="Times,serif" font-size="14.00" fill="#000000">DbSelectorComponent</text>
</g>
<!-- DbSelectorComponent&#45;&gt;DatabaseModule -->
<g id="edge16" class="edge">
<title>DbSelectorComponent&#45;&gt;DatabaseModule</title>
<path fill="none" stroke="#000000" d="M1110.6379,-198.0109C1110.6379,-198.0109 1110.6379,-227.855 1110.6379,-227.855"/>
<polygon fill="#000000" stroke="#000000" points="1107.138,-227.8549 1110.6379,-237.855 1114.138,-227.855 1107.138,-227.8549"/>
</g>
<!-- DisplayBuildComponent -->
<g id="node19" class="node">
<title>DisplayBuildComponent</title>
<polygon fill="#ffffb3" stroke="#000000" points="2019.9972,-274 1864.0028,-274 1864.0028,-238 2019.9972,-238 2019.9972,-274"/>
<text text-anchor="middle" x="1942" y="-251.8" font-family="Times,serif" font-size="14.00" fill="#000000">DisplayBuildComponent</text>
</g>
<!-- DisplayBuildComponent&#45;&gt;DisplayBuildModule -->
<g id="edge19" class="edge">
<title>DisplayBuildComponent&#45;&gt;DisplayBuildModule</title>
<path fill="none" stroke="#000000" d="M1876.5551,-237.7181C1876.5551,-222.0522 1876.5551,-202 1876.5551,-202 1876.5551,-202 1522.0108,-202 1522.0108,-202 1522.0108,-202 1522.0108,-201.6168 1522.0108,-201.6168"/>
<polygon fill="#000000" stroke="#000000" points="1525.5111,-208.1678 1522.0108,-198.1679 1518.5111,-208.168 1525.5111,-208.1678"/>
</g>
<!-- StratCairnComponent -->
<g id="node21" class="node">
<title>StratCairnComponent</title>
<polygon fill="#ffffb3" stroke="#000000" points="2391.3739,-122 2252.6261,-122 2252.6261,-86 2391.3739,-86 2391.3739,-122"/>
<text text-anchor="middle" x="2322" y="-99.8" font-family="Times,serif" font-size="14.00" fill="#000000">StratCairnComponent</text>
</g>
<!-- StratCairnComponent&#45;&gt;StratModule -->
<g id="edge21" class="edge">
<title>StratCairnComponent&#45;&gt;StratModule</title>
<path fill="none" stroke="#000000" d="M2322,-122.0449C2322,-129.749 2322,-137 2322,-137 2322,-137 1377.6822,-137 1377.6822,-137 1377.6822,-137 1377.6822,-151.5146 1377.6822,-151.5146"/>
<polygon fill="#000000" stroke="#000000" points="1374.1823,-151.5145 1377.6822,-161.5146 1381.1823,-151.5146 1374.1823,-151.5145"/>
</g>
<!-- StratComponent -->
<g id="node22" class="node">
<title>StratComponent</title>
<polygon fill="#ffffb3" stroke="#000000" points="2234.7716,-122 2127.2284,-122 2127.2284,-86 2234.7716,-86 2234.7716,-122"/>
<text text-anchor="middle" x="2181" y="-99.8" font-family="Times,serif" font-size="14.00" fill="#000000">StratComponent</text>
</g>
<!-- StratComponent&#45;&gt;StratModule -->
<g id="edge22" class="edge">
<title>StratComponent&#45;&gt;StratModule</title>
<path fill="none" stroke="#000000" d="M2168.9415,-122.1432C2168.9415,-128.4611 2168.9415,-134 2168.9415,-134 2168.9415,-134 1374.5781,-134 1374.5781,-134 1374.5781,-134 1374.5781,-151.8196 1374.5781,-151.8196"/>
<polygon fill="#000000" stroke="#000000" points="1371.0782,-151.8195 1374.5781,-161.8196 1378.0782,-151.8196 1371.0782,-151.8195"/>
</g>
<!-- StratDeiComponent -->
<g id="node23" class="node">
<title>StratDeiComponent</title>
<polygon fill="#ffffb3" stroke="#000000" points="2108.9832,-122 1981.0168,-122 1981.0168,-86 2108.9832,-86 2108.9832,-122"/>
<text text-anchor="middle" x="2045" y="-99.8" font-family="Times,serif" font-size="14.00" fill="#000000">StratDeiComponent</text>
</g>
<!-- StratDeiComponent&#45;&gt;StratModule -->
<g id="edge23" class="edge">
<title>StratDeiComponent&#45;&gt;StratModule</title>
<path fill="none" stroke="#000000" d="M2015.1922,-122.207C2015.1922,-127.5549 2015.1922,-132 2015.1922,-132 2015.1922,-132 1371.4741,-132 1371.4741,-132 1371.4741,-132 1371.4741,-151.8533 1371.4741,-151.8533"/>
<polygon fill="#000000" stroke="#000000" points="1367.9741,-151.8532 1371.4741,-161.8533 1374.9741,-151.8533 1367.9741,-151.8532"/>
</g>
<!-- StratDhuumComponent -->
<g id="node24" class="node">
<title>StratDhuumComponent</title>
<polygon fill="#ffffb3" stroke="#000000" points="1962.7688,-122 1813.2312,-122 1813.2312,-86 1962.7688,-86 1962.7688,-122"/>
<text text-anchor="middle" x="1888" y="-99.8" font-family="Times,serif" font-size="14.00" fill="#000000">StratDhuumComponent</text>
</g>
<!-- StratDhuumComponent&#45;&gt;StratModule -->
<g id="edge24" class="edge">
<title>StratDhuumComponent&#45;&gt;StratModule</title>
<path fill="none" stroke="#000000" d="M1851.1122,-122.0579C1851.1122,-126.4945 1851.1122,-130 1851.1122,-130 1851.1122,-130 1368.37,-130 1368.37,-130 1368.37,-130 1368.37,-151.9489 1368.37,-151.9489"/>
<polygon fill="#000000" stroke="#000000" points="1364.8701,-151.9488 1368.37,-161.9489 1371.8701,-151.9489 1364.8701,-151.9488"/>
</g>
<!-- StratEaterComponent -->
<g id="node25" class="node">
<title>StratEaterComponent</title>
<polygon fill="#ffffb3" stroke="#000000" points="1794.8047,-122 1657.1953,-122 1657.1953,-86 1794.8047,-86 1794.8047,-122"/>
<text text-anchor="middle" x="1726" y="-99.8" font-family="Times,serif" font-size="14.00" fill="#000000">StratEaterComponent</text>
</g>
<!-- StratEaterComponent&#45;&gt;StratModule -->
<g id="edge25" class="edge">
<title>StratEaterComponent&#45;&gt;StratModule</title>
<path fill="none" stroke="#000000" d="M1704.1448,-122.1223C1704.1448,-124.9729 1704.1448,-127 1704.1448,-127 1704.1448,-127 1365.2659,-127 1365.2659,-127 1365.2659,-127 1365.2659,-151.7604 1365.2659,-151.7604"/>
<polygon fill="#000000" stroke="#000000" points="1361.766,-151.7604 1365.2659,-161.7604 1368.766,-151.7604 1361.766,-151.7604"/>
</g>
<!-- StratGorseComponent -->
<g id="node26" class="node">
<title>StratGorseComponent</title>
<polygon fill="#ffffb3" stroke="#000000" points="1639.6979,-122 1498.3021,-122 1498.3021,-86 1639.6979,-86 1639.6979,-122"/>
<text text-anchor="middle" x="1569" y="-99.8" font-family="Times,serif" font-size="14.00" fill="#000000">StratGorseComponent</text>
</g>
<!-- StratGorseComponent&#45;&gt;StratModule -->
<g id="edge26" class="edge">
<title>StratGorseComponent&#45;&gt;StratModule</title>
<path fill="none" stroke="#000000" d="M1518.7542,-122.08C1518.7542,-123.8464 1518.7542,-125 1518.7542,-125 1518.7542,-125 1362.1618,-125 1362.1618,-125 1362.1618,-125 1362.1618,-151.9909 1362.1618,-151.9909"/>
<polygon fill="#000000" stroke="#000000" points="1358.6619,-151.9909 1362.1618,-161.9909 1365.6619,-151.991 1358.6619,-151.9909"/>
</g>
<!-- StratKcComponent -->
<g id="node27" class="node">
<title>StratKcComponent</title>
<polygon fill="#ffffb3" stroke="#000000" points="1480.0926,-122 1355.9074,-122 1355.9074,-86 1480.0926,-86 1480.0926,-122"/>
<text text-anchor="middle" x="1418" y="-99.8" font-family="Times,serif" font-size="14.00" fill="#000000">StratKcComponent</text>
</g>
<!-- StratKcComponent&#45;&gt;StratModule -->
<g id="edge27" class="edge">
<title>StratKcComponent&#45;&gt;StratModule</title>
<path fill="none" stroke="#000000" d="M1359.0578,-122.0109C1359.0578,-122.0109 1359.0578,-151.855 1359.0578,-151.855"/>
<polygon fill="#000000" stroke="#000000" points="1355.5579,-151.8549 1359.0578,-161.855 1362.5579,-151.855 1355.5579,-151.8549"/>
</g>
<!-- StratKingComponent -->
<g id="node28" class="node">
<title>StratKingComponent</title>
<polygon fill="#ffffb3" stroke="#000000" points="1337.7688,-122 1202.2312,-122 1202.2312,-86 1337.7688,-86 1337.7688,-122"/>
<text text-anchor="middle" x="1270" y="-99.8" font-family="Times,serif" font-size="14.00" fill="#000000">StratKingComponent</text>
</g>
<!-- StratKingComponent&#45;&gt;StratModule -->
<g id="edge28" class="edge">
<title>StratKingComponent&#45;&gt;StratModule</title>
<path fill="none" stroke="#000000" d="M1334.1964,-122.0109C1334.1964,-122.0109 1334.1964,-151.855 1334.1964,-151.855"/>
<polygon fill="#000000" stroke="#000000" points="1330.6965,-151.8549 1334.1964,-161.855 1337.6965,-151.855 1330.6965,-151.8549"/>
</g>
<!-- StratMatComponent -->
<g id="node29" class="node">
<title>StratMatComponent</title>
<polygon fill="#ffffb3" stroke="#000000" points="1184.3216,-122 1053.6784,-122 1053.6784,-86 1184.3216,-86 1184.3216,-122"/>
<text text-anchor="middle" x="1119" y="-99.8" font-family="Times,serif" font-size="14.00" fill="#000000">StratMatComponent</text>
</g>
<!-- StratMatComponent&#45;&gt;StratModule -->
<g id="edge29" class="edge">
<title>StratMatComponent&#45;&gt;StratModule</title>
<path fill="none" stroke="#000000" d="M1168.651,-122.1274C1168.651,-132.7109 1168.651,-144 1168.651,-144 1168.651,-144 1330.5086,-144 1330.5086,-144 1330.5086,-144 1330.5086,-151.5782 1330.5086,-151.5782"/>
<polygon fill="#000000" stroke="#000000" points="1327.0087,-151.5781 1330.5086,-161.5782 1334.0087,-151.5782 1327.0087,-151.5781"/>
</g>
<!-- StratMoComponent -->
<g id="node30" class="node">
<title>StratMoComponent</title>
<polygon fill="#ffffb3" stroke="#000000" points="1035.7162,-122 908.2838,-122 908.2838,-86 1035.7162,-86 1035.7162,-122"/>
<text text-anchor="middle" x="972" y="-99.8" font-family="Times,serif" font-size="14.00" fill="#000000">StratMoComponent</text>
</g>
<!-- StratMoComponent&#45;&gt;StratModule -->
<g id="edge30" class="edge">
<title>StratMoComponent&#45;&gt;StratModule</title>
<path fill="none" stroke="#000000" d="M1002.2272,-122.0555C1002.2272,-133.439 1002.2272,-146 1002.2272,-146 1002.2272,-146 1326.8207,-146 1326.8207,-146 1326.8207,-146 1326.8207,-151.8056 1326.8207,-151.8056"/>
<polygon fill="#000000" stroke="#000000" points="1323.3208,-151.8055 1326.8207,-161.8056 1330.3208,-151.8056 1323.3208,-151.8055"/>
</g>
<!-- StratRiverComponent -->
<g id="node31" class="node">
<title>StratRiverComponent</title>
<polygon fill="#ffffb3" stroke="#000000" points="890.3739,-122 751.6261,-122 751.6261,-86 890.3739,-86 890.3739,-122"/>
<text text-anchor="middle" x="821" y="-99.8" font-family="Times,serif" font-size="14.00" fill="#000000">StratRiverComponent</text>
</g>
<!-- StratRiverComponent&#45;&gt;StratModule -->
<g id="edge31" class="edge">
<title>StratRiverComponent&#45;&gt;StratModule</title>
<path fill="none" stroke="#000000" d="M855.8293,-122.1505C855.8293,-134.2708 855.8293,-148 855.8293,-148 855.8293,-148 1323.1328,-148 1323.1328,-148 1323.1328,-148 1323.1328,-151.7566 1323.1328,-151.7566"/>
<polygon fill="#000000" stroke="#000000" points="1319.6329,-151.7566 1323.1328,-161.7566 1326.6329,-151.7566 1319.6329,-151.7566"/>
</g>
<!-- StratSabComponent -->
<g id="node32" class="node">
<title>StratSabComponent</title>
<polygon fill="#ffffb3" stroke="#000000" points="733.2688,-122 604.7312,-122 604.7312,-86 733.2688,-86 733.2688,-122"/>
<text text-anchor="middle" x="669" y="-99.8" font-family="Times,serif" font-size="14.00" fill="#000000">StratSabComponent</text>
</g>
<!-- StratSabComponent&#45;&gt;StratModule -->
<g id="edge32" class="edge">
<title>StratSabComponent&#45;&gt;StratModule</title>
<path fill="none" stroke="#000000" d="M697.1957,-122.037C697.1957,-135.2913 697.1957,-151 697.1957,-151 697.1957,-151 1319.445,-151 1319.445,-151 1319.445,-151 1319.445,-152.0799 1319.445,-152.0799"/>
<polygon fill="#000000" stroke="#000000" points="1315.9451,-151.7985 1319.445,-161.7985 1322.9451,-151.7986 1315.9451,-151.7985"/>
</g>
<!-- StratSamComponent -->
<g id="node33" class="node">
<title>StratSamComponent</title>
<polygon fill="#ffffb3" stroke="#000000" points="586.1596,-122 453.8404,-122 453.8404,-86 586.1596,-86 586.1596,-122"/>
<text text-anchor="middle" x="520" y="-99.8" font-family="Times,serif" font-size="14.00" fill="#000000">StratSamComponent</text>
</g>
<!-- StratSamComponent&#45;&gt;StratModule -->
<g id="edge33" class="edge">
<title>StratSamComponent&#45;&gt;StratModule</title>
<path fill="none" stroke="#000000" d="M544.9006,-122.2458C544.9006,-136.1772 544.9006,-153 544.9006,-153 544.9006,-153 1315.7571,-153 1315.7571,-153 1315.7571,-153 1315.7571,-153.8841 1315.7571,-153.8841"/>
<polygon fill="#000000" stroke="#000000" points="1312.2572,-151.8408 1315.7571,-161.8408 1319.2572,-151.8409 1312.2572,-151.8408"/>
</g>
<!-- StratSlothComponent -->
<g id="node34" class="node">
<title>StratSlothComponent</title>
<polygon fill="#ffffb3" stroke="#000000" points="435.8356,-122 298.1644,-122 298.1644,-86 435.8356,-86 435.8356,-122"/>
<text text-anchor="middle" x="367" y="-99.8" font-family="Times,serif" font-size="14.00" fill="#000000">StratSlothComponent</text>
</g>
<!-- StratSlothComponent&#45;&gt;StratModule -->
<g id="edge34" class="edge">
<title>StratSlothComponent&#45;&gt;StratModule</title>
<path fill="none" stroke="#000000" d="M367,-122.1243C367,-136.7832 367,-155 367,-155 367,-155 1312.0692,-155 1312.0692,-155 1312.0692,-155 1312.0692,-155.6831 1312.0692,-155.6831"/>
<polygon fill="#000000" stroke="#000000" points="1308.5694,-151.8313 1312.0692,-161.8314 1315.5694,-151.8314 1308.5694,-151.8313"/>
</g>
<!-- StratSsComponent -->
<g id="node35" class="node">
<title>StratSsComponent</title>
<polygon fill="#ffffb3" stroke="#000000" points="280.4986,-122 159.5014,-122 159.5014,-86 280.4986,-86 280.4986,-122"/>
<text text-anchor="middle" x="220" y="-99.8" font-family="Times,serif" font-size="14.00" fill="#000000">StratSsComponent</text>
</g>
<!-- StratSsComponent&#45;&gt;StratModule -->
<g id="edge35" class="edge">
<title>StratSsComponent&#45;&gt;StratModule</title>
<path fill="none" stroke="#000000" d="M220,-122.2819C220,-137.9478 220,-158 220,-158 220,-158 1308.3813,-158 1308.3813,-158 1308.3813,-158 1308.3813,-158.3832 1308.3813,-158.3832"/>
<polygon fill="#000000" stroke="#000000" points="1304.8816,-151.832 1308.3813,-161.8321 1311.8816,-151.8322 1304.8816,-151.832"/>
</g>
<!-- StratVgComponent -->
<g id="node36" class="node">
<title>StratVgComponent</title>
<polygon fill="#ffffb3" stroke="#000000" points="2687.3781,-122 2562.6219,-122 2562.6219,-86 2687.3781,-86 2687.3781,-122"/>
<text text-anchor="middle" x="2625" y="-99.8" font-family="Times,serif" font-size="14.00" fill="#000000">StratVgComponent</text>
</g>
<!-- StratVgComponent&#45;&gt;StratModule -->
<g id="edge36" class="edge">
<title>StratVgComponent&#45;&gt;StratModule</title>
<path fill="none" stroke="#000000" d="M2625,-122.0664C2625,-131.4587 2625,-141 2625,-141 2625,-141 1383.8903,-141 1383.8903,-141 1383.8903,-141 1383.8903,-151.8701 1383.8903,-151.8701"/>
<polygon fill="#000000" stroke="#000000" points="1380.3904,-151.8701 1383.8903,-161.8701 1387.3904,-151.8701 1380.3904,-151.8701"/>
</g>
<!-- StratXeraComponent -->
<g id="node37" class="node">
<title>StratXeraComponent</title>
<polygon fill="#ffffb3" stroke="#000000" points="2544.4678,-122 2409.5322,-122 2409.5322,-86 2544.4678,-86 2544.4678,-122"/>
<text text-anchor="middle" x="2477" y="-99.8" font-family="Times,serif" font-size="14.00" fill="#000000">StratXeraComponent</text>
</g>
<!-- StratXeraComponent&#45;&gt;StratModule -->
<g id="edge37" class="edge">
<title>StratXeraComponent&#45;&gt;StratModule</title>
<path fill="none" stroke="#000000" d="M2477,-122.32C2477,-130.7883 2477,-139 2477,-139 2477,-139 1380.7863,-139 1380.7863,-139 1380.7863,-139 1380.7863,-151.8975 1380.7863,-151.8975"/>
<polygon fill="#000000" stroke="#000000" points="1377.2864,-151.8974 1380.7863,-161.8975 1384.2864,-151.8975 1377.2864,-151.8974"/>
</g>
</g>
</svg>
